<?xml version="1.0" encoding="UTF-8" standalone="no"?>
<svg
   xmlns:dc="http://purl.org/dc/elements/1.1/"
   xmlns:cc="http://creativecommons.org/ns#"
   xmlns:rdf="http://www.w3.org/1999/02/22-rdf-syntax-ns#"
   xmlns:svg="http://www.w3.org/2000/svg"
   xmlns="http://www.w3.org/2000/svg"
   viewBox="0 0 1440 1440"
   height="1440"
   width="1440"
   xml:space="preserve"
   id="svg2"
   version="1.1"><metadata
     id="metadata8"><rdf:RDF><cc:Work
         rdf:about=""><dc:format>image/svg+xml</dc:format><dc:type
           rdf:resource="http://purl.org/dc/dcmitype/StillImage" /></cc:Work></rdf:RDF></metadata><defs
     id="defs6"><clipPath
       id="clipPath20"
       clipPathUnits="userSpaceOnUse"><path
         id="path18"
         d="M 0,1080 H 1080 V 0 H 0 Z" /></clipPath></defs><g
     transform="matrix(1.3333333,0,0,-1.3333333,0,1440)"
     id="g10"><path
       id="path12"
       style="fill:#ffffff;fill-opacity:1;fill-rule:nonzero;stroke:none"
       d="M 0,0 H 1080 V 1079 H 0 Z" /><g
       id="g14"><g
         clip-path="url(#clipPath20)"
         id="g16"><g
           transform="translate(351.3307,484.6994)"
           id="g22"><path
             id="path24"
             style="fill:#6348e5;fill-opacity:1;fill-rule:nonzero;stroke:none"
             d="m 0,0 c -1.778,1.372 -4.686,2.061 -8.724,2.061 -1.779,0 -3.616,-0.143 -5.514,-0.426 C -16.137,1.352 -17.57,1.13 -18.54,0.969 v -38.535 -9.33 -1.211 c 0,-3.071 -0.687,-5.392 -2.059,-6.968 -1.376,-1.576 -3.636,-2.362 -6.787,-2.362 -1.293,0 -2.484,0.059 -3.575,0.179 -1.09,0.122 -2.404,0.344 -3.938,0.668 -0.566,-0.727 -1.09,-1.696 -1.575,-2.908 -0.484,-1.214 -0.727,-2.627 -0.727,-4.241 0,-4.042 1.514,-6.848 4.544,-8.422 3.029,-1.576 6.684,-2.364 10.966,-2.364 5.332,0 9.795,0.969 13.39,2.908 3.594,1.94 6.321,4.685 8.18,8.242 1.858,3.551 2.787,7.713 2.787,12.48 v 3.999 9.33 29.568 C 2.666,-4.04 1.777,-1.376 0,0" /></g><g
           transform="translate(378.7157,471.1261)"
           id="g26"><path
             id="path28"
             style="fill:#6348e5;fill-opacity:1;fill-rule:nonzero;stroke:none"
             d="M 0,0 C -1.938,0 -3.737,-0.12 -5.393,-0.362 -7.049,-0.605 -8.322,-0.847 -9.21,-1.089 v -26.054 -10.783 -12.482 c 0,-3.718 0.909,-6.264 2.727,-7.636 1.818,-1.373 4.705,-2.059 8.664,-2.059 1.939,0 3.736,0.12 5.393,0.365 1.654,0.24 2.927,0.484 3.817,0.725 v 21.087 10.783 17.451 c 0,3.795 -0.89,6.361 -2.666,7.692 C 6.947,-0.666 4.039,0 0,0" /></g><g
           transform="translate(379.8061,498.1506)"
           id="g30"><path
             id="path32"
             style="fill:#6348e5;fill-opacity:1;fill-rule:nonzero;stroke:none"
             d="m 0,0 c -3.313,0 -6.019,-1.051 -8.118,-3.152 -2.103,-2.101 -3.151,-4.687 -3.151,-7.754 0,-2.991 1.048,-5.557 3.151,-7.697 2.099,-2.14 4.805,-3.209 8.118,-3.209 3.312,0 6.017,1.069 8.119,3.209 2.1,2.14 3.15,4.706 3.15,7.697 0,3.067 -1.05,5.653 -3.15,7.754 C 6.017,-1.051 3.312,0 0,0" /></g><g
           transform="translate(432.6385,429.8054)"
           id="g34"><path
             id="path36"
             style="fill:#6348e5;fill-opacity:1;fill-rule:nonzero;stroke:none"
             d="m 0,0 c -2.989,0 -5.473,0.928 -7.453,2.788 -1.98,1.857 -2.968,5.33 -2.968,10.421 0,4.765 1.091,8.218 3.272,10.36 2.181,2.14 5.008,3.211 8.483,3.211 1.533,0 2.786,-0.14 3.755,-0.423 0.97,-0.283 1.859,-0.628 2.667,-1.031 V 2.266 C 7.204,1.926 6.654,1.585 6.059,1.273 4.442,0.426 2.424,0 0,0 m 22.296,37.201 c -2.101,1.373 -5.109,2.666 -9.027,3.879 -3.919,1.21 -8.18,1.817 -12.784,1.817 -6.301,0 -11.814,-1.112 -16.54,-3.331 -4.727,-2.224 -8.383,-5.535 -10.967,-9.937 -2.586,-4.407 -3.877,-9.837 -3.877,-16.298 0,-6.95 1.229,-12.543 3.695,-16.784 2.463,-4.242 5.756,-7.292 9.876,-9.149 4.12,-1.859 8.604,-2.788 13.451,-2.788 3.311,0 6.159,0.324 8.543,0.972 1.221,0.33 2.369,0.707 3.453,1.123 v -3.184 c 0,-3.229 -1.293,-5.575 -3.878,-7.029 -2.586,-1.454 -6.019,-2.181 -10.3,-2.181 -3.231,0 -6.321,0.446 -9.27,1.334 -2.949,0.888 -5.594,1.979 -7.937,3.27 -0.969,-0.727 -1.838,-1.857 -2.605,-3.392 -0.769,-1.536 -1.151,-3.23 -1.151,-5.091 0,-3.553 1.454,-6.3 4.362,-8.238 1.94,-1.291 4.585,-2.283 7.937,-2.969 3.352,-0.686 7.169,-1.03 11.452,-1.03 5.735,0 10.924,0.889 15.571,2.665 4.644,1.778 8.34,4.504 11.088,8.179 2.745,3.678 4.119,8.343 4.119,13.997 v 6.785 4.606 33.565 c 0,2.183 -0.465,3.999 -1.393,5.453 -0.929,1.454 -2.202,2.706 -3.818,3.756" /></g><g
           transform="translate(507.2817,457.9193)"
           id="g38"><path
             id="path40"
             style="fill:#16c60c;fill-opacity:1;fill-rule:nonzero;stroke:none"
             d="m 0,0 -6.422,2.061 c -2.02,0.643 -3.575,1.352 -4.665,2.119 -1.091,0.768 -1.636,1.758 -1.636,2.969 0,1.533 0.848,2.806 2.544,3.818 1.697,1.008 4.363,1.515 7.998,1.515 3.554,0 6.826,-0.426 9.816,-1.275 2.987,-0.847 5.371,-1.836 7.149,-2.969 1.372,1.051 2.544,2.342 3.514,3.879 0.97,1.534 1.454,3.311 1.454,5.333 0,2.827 -1.05,5.148 -3.151,6.966 -2.101,1.818 -4.968,3.171 -8.603,4.06 -3.635,0.888 -7.797,1.334 -12.482,1.334 -9.532,0 -16.945,-2.061 -22.235,-6.182 -5.292,-4.119 -7.937,-9.615 -7.937,-16.479 0,-4.685 1.009,-8.483 3.029,-11.39 2.019,-2.91 4.826,-5.272 8.421,-7.088 3.594,-1.819 7.735,-3.535 12.421,-5.152 l 5.09,-1.696 c 2.342,-0.809 4.16,-1.678 5.453,-2.605 1.292,-0.93 1.939,-2.203 1.939,-3.817 0,-1.617 -0.809,-3.073 -2.424,-4.364 -1.617,-1.291 -4.404,-1.938 -8.361,-1.938 -3.878,0 -7.452,0.647 -10.724,1.938 -3.271,1.291 -6.04,2.828 -8.301,4.606 -1.617,-0.89 -3.11,-2.163 -4.484,-3.816 -1.374,-1.657 -2.059,-3.657 -2.059,-5.999 0,-2.989 1.17,-5.534 3.514,-7.635 2.342,-2.102 5.493,-3.678 9.451,-4.724 3.958,-1.051 8.402,-1.576 13.33,-1.576 10.422,0 18.359,2.162 23.812,6.483 5.453,4.321 8.179,9.916 8.179,16.782 0,6.463 -2.021,11.613 -6.06,15.451 C 13.531,-5.555 7.674,-2.423 0,0" /></g><g
           transform="translate(624.5825,470.279)"
           id="g42"><path
             id="path44"
             style="fill:#16c60c;fill-opacity:1;fill-rule:nonzero;stroke:none"
             d="m 0,0 c -1.86,1.212 -4.202,1.816 -7.029,1.816 -3.392,0 -6.543,-0.847 -9.452,-2.543 -0.727,-6.868 -1.514,-13.673 -2.362,-20.419 -0.849,-6.746 -1.718,-13.229 -2.605,-19.448 h -0.607 c -0.324,1.696 -0.908,4.199 -1.756,7.514 -0.849,3.311 -1.839,7.147 -2.969,11.51 -1.133,4.364 -2.345,8.884 -3.636,13.572 -0.566,1.857 -1.859,3.229 -3.878,4.121 -2.02,0.888 -4.444,1.332 -7.27,1.332 -2.262,0 -4.202,-0.243 -5.816,-0.727 -1.617,-0.485 -3.233,-1.171 -4.848,-2.059 -1.132,-4.848 -2.302,-9.655 -3.514,-14.42 -1.212,-4.769 -2.262,-8.988 -3.15,-12.665 -0.89,-3.676 -1.536,-6.402 -1.94,-8.178 h -0.484 c -0.163,0.807 -0.344,1.898 -0.545,3.27 -0.203,1.373 -0.485,3.291 -0.848,5.757 -0.364,2.464 -0.83,5.715 -1.394,9.755 -0.566,4.038 -1.253,9.126 -2.06,15.268 -0.406,3.07 -1.514,5.229 -3.333,6.483 -1.817,1.25 -4.14,1.877 -6.968,1.877 -2.262,0 -4.343,-0.423 -6.24,-1.27 -1.898,-0.849 -3.413,-1.839 -4.543,-2.969 0.484,-3.152 1.09,-6.687 1.817,-10.605 0.727,-3.917 1.533,-7.957 2.423,-12.115 0.888,-4.162 1.797,-8.161 2.727,-11.997 0.928,-3.839 1.836,-7.233 2.726,-10.179 0.889,-2.951 1.697,-5.231 2.424,-6.848 0.806,-1.696 2.443,-3.01 4.907,-3.938 2.464,-0.929 5.312,-1.393 8.543,-1.393 2.667,0 4.988,0.301 6.968,0.908 1.978,0.607 3.493,1.393 4.544,2.362 0.565,1.941 1.373,4.647 2.424,8.121 1.049,3.473 2.161,7.228 3.332,11.268 1.17,4.04 2.121,7.917 2.848,11.635 0.727,-3.555 1.594,-7.233 2.605,-11.028 1.009,-3.8 2.04,-7.292 3.09,-10.483 1.049,-3.192 1.897,-5.754 2.544,-7.692 1.213,-3.395 5.211,-5.091 11.998,-5.091 2.665,0 5.189,0.301 7.572,0.908 2.383,0.607 4.1,1.393 5.151,2.362 0.564,1.456 1.231,3.494 2,6.121 0.766,2.625 1.575,5.593 2.423,8.906 0.848,3.311 1.697,6.744 2.545,10.3 0.848,3.555 1.594,6.947 2.242,10.181 0.645,3.229 1.17,6.118 1.575,8.662 0.403,2.545 0.606,4.463 0.606,5.758 0,2.985 -0.93,5.086 -2.787,6.3" /></g><g
           transform="translate(671.3541,426.6553)"
           id="g46"><path
             id="path48"
             style="fill:#16c60c;fill-opacity:1;fill-rule:nonzero;stroke:none"
             d="m 0,0 c -0.808,-0.485 -2.04,-0.869 -3.696,-1.152 -1.656,-0.284 -3.171,-0.424 -4.544,-0.424 -2.99,0 -5.11,0.505 -6.362,1.515 -1.253,1.01 -1.878,2.321 -1.878,3.938 0,1.617 0.727,2.826 2.182,3.637 1.454,0.806 3.311,1.291 5.574,1.453 L 0,9.692 Z m 11.936,40.655 c -5.292,3.592 -12.341,5.392 -21.145,5.392 -2.829,0 -5.838,-0.204 -9.028,-0.607 -3.192,-0.403 -5.958,-1.051 -8.301,-1.938 -4.119,-1.617 -6.18,-4.362 -6.18,-8.239 0,-1.617 0.364,-3.172 1.091,-4.667 0.728,-1.495 1.615,-2.604 2.666,-3.331 2.342,0.969 4.987,1.775 7.937,2.423 2.949,0.645 5.917,0.969 8.907,0.969 3.877,0 6.846,-0.505 8.906,-1.515 2.061,-1.01 3.09,-2.686 3.09,-5.029 V 23.266 L -15.995,21.57 c -6.867,-0.727 -11.977,-2.588 -15.329,-5.574 -3.354,-2.991 -5.028,-7.273 -5.028,-12.846 0,-6.624 2.563,-11.572 7.694,-14.844 5.13,-3.272 11.936,-4.907 20.418,-4.907 4.766,0 9.007,0.405 12.724,1.211 3.715,0.807 6.865,1.98 9.452,3.515 1.615,0.969 3.008,2.12 4.18,3.453 1.17,1.332 1.757,3.048 1.757,5.15 v 27.144 c 0,7.591 -2.647,13.187 -7.937,16.783" /></g><g
           transform="translate(741.5748,430.351)"
           id="g50"><path
             id="path52"
             style="fill:#16c60c;fill-opacity:1;fill-rule:nonzero;stroke:none"
             d="m 0,0 c -2.141,-2.627 -5.231,-3.938 -9.27,-3.938 -2.262,0 -4.283,0.442 -6.059,1.334 -0.257,0.128 -0.478,0.271 -0.726,0.402 v 26.618 c 0.887,0.485 1.978,0.91 3.272,1.275 1.291,0.362 2.705,0.543 4.24,0.543 2.585,0 4.745,-0.527 6.483,-1.574 1.736,-1.05 3.049,-2.647 3.938,-4.787 C 2.766,17.731 3.211,14.923 3.211,11.45 3.211,6.441 2.14,2.625 0,0 M 20.177,29.083 C 17.429,33.644 13.591,37 8.664,39.14 3.736,41.28 -2,42.351 -8.543,42.351 c -4.767,0 -9.129,-0.505 -13.087,-1.515 -3.959,-1.01 -7.19,-2.323 -9.694,-3.938 -1.617,-1.051 -2.889,-2.301 -3.817,-3.757 -0.929,-1.454 -1.394,-3.272 -1.394,-5.453 v -34.414 -4.968 -19.629 c 0,-3.716 0.91,-6.261 2.727,-7.636 1.817,-1.372 4.706,-2.06 8.664,-2.06 1.939,0 3.735,0.122 5.393,0.364 1.654,0.242 2.927,0.485 3.817,0.727 v 21.418 c 0.699,-0.239 1.39,-0.485 2.12,-0.698 2.221,-0.643 4.786,-0.969 7.695,-0.969 5.817,0 11.006,1.214 15.571,3.637 4.563,2.423 8.179,5.976 10.846,10.661 2.665,4.686 3.998,10.462 3.998,17.329 0,7.191 -1.374,13.068 -4.119,17.633" /></g><g
           transform="translate(485.6274,605.6098)"
           id="g54"><path
             id="path56"
             style="fill:#6348e5;fill-opacity:1;fill-rule:nonzero;stroke:none"
             d="m 0,0 c 0.062,0.444 -0.203,0.934 -0.294,1.359 -0.153,0.717 -0.181,1.461 -0.292,2.186 -0.49,3.21 -1.565,6.33 -3.147,9.165 -0.89,1.592 -2.06,2.91 -3.076,4.402 1.772,-2.604 3.194,-5.446 4.215,-8.425 0.659,-1.922 1.155,-3.942 1.011,-5.97 C -1.64,1.904 -1.801,1.1 -1.91,0.29 -2.123,-1.288 -0.196,-1.412 0,0" /></g><g
           transform="translate(462.6957,608.6205)"
           id="g58"><path
             id="path60"
             style="fill:#6348e5;fill-opacity:1;fill-rule:nonzero;stroke:none"
             d="m 0,0 c -1.159,0.722 -2.271,1.539 -3.189,2.549 -0.637,0.7 -1.179,1.495 -1.548,2.368 -0.159,0.375 -0.218,0.83 -0.415,1.181 -0.1,0.178 -0.859,0.838 -0.819,1.019 C -6.464,5.484 -5.672,3.681 -4.435,2.505 -3.197,1.328 -1.579,0.652 0,0" /></g><g
           transform="translate(473.4886,612.4667)"
           id="g62"><path
             id="path64"
             style="fill:#6348e5;fill-opacity:1;fill-rule:nonzero;stroke:none"
             d="M 0,0 C 0.948,-0.671 1.838,-1.424 2.656,-2.248 4.098,-3.7 5.321,-5.373 6.236,-7.205 6.995,-8.723 7.818,-10.609 7.758,-12.339 7.91,-9.783 7.282,-7.196 5.937,-5.013 4.556,-2.769 2.442,-0.986 0,0" /></g><g
           transform="translate(598.8626,580.9612)"
           id="g66"><path
             id="path68"
             style="fill:#6348e5;fill-opacity:1;fill-rule:nonzero;stroke:none"
             d="m 0,0 c 1.159,-0.722 2.271,-1.539 3.19,-2.549 0.636,-0.7 1.178,-1.495 1.547,-2.368 0.159,-0.375 0.218,-0.83 0.415,-1.181 0.1,-0.178 0.859,-0.838 0.819,-1.02 0.493,1.634 -0.299,3.437 -1.536,4.613 C 3.197,-1.328 1.579,-0.652 0,0" /></g><g
           transform="translate(588.0698,577.115)"
           id="g70"><path
             id="path72"
             style="fill:#6348e5;fill-opacity:1;fill-rule:nonzero;stroke:none"
             d="M 0,0 C -0.948,0.671 -1.838,1.424 -2.656,2.248 -4.098,3.7 -5.321,5.373 -6.236,7.205 -6.995,8.723 -7.818,10.609 -7.758,12.339 -7.91,9.783 -7.282,7.196 -5.937,5.012 -4.556,2.769 -2.442,0.986 0,0" /></g><g
           transform="translate(575.9311,583.9719)"
           id="g74"><path
             id="path76"
             style="fill:#6348e5;fill-opacity:1;fill-rule:nonzero;stroke:none"
             d="m 0,0 c -0.062,-0.444 0.203,-0.934 0.294,-1.359 0.154,-0.717 0.181,-1.461 0.292,-2.186 0.49,-3.21 1.565,-6.33 3.147,-9.165 0.89,-1.592 2.06,-2.91 3.076,-4.402 -1.773,2.604 -3.194,5.446 -4.215,8.425 -0.659,1.923 -1.156,3.942 -1.011,5.97 C 1.64,-1.904 1.801,-1.1 1.91,-0.29 2.123,1.287 0.195,1.412 0,0" /></g><g
           transform="translate(590.3965,632.3829)"
           id="g78"><path
             id="path80"
             style="fill:#6348e5;fill-opacity:1;fill-rule:nonzero;stroke:none"
             d="m 0,0 c -0.024,-0.023 -0.024,-0.023 -0.047,-0.047 -2.348,-2.348 -3.898,-5.306 -4.344,-8.617 -0.775,-5.706 -3.663,-11.177 -8.641,-15.168 -8.406,-6.716 -20.663,-6.716 -29.045,0.023 -11.083,8.876 -11.741,25.077 -1.996,34.822 3.757,3.756 8.453,5.964 13.337,6.621 3.311,0.446 6.316,1.996 8.664,4.344 0.023,0.024 0.023,0.024 0.047,0.047 L -59.617,59.617 -97.209,22.025 c -0.024,0.023 -0.024,0.023 -0.047,0.047 -1.151,1.15 -2.114,2.489 -2.842,3.921 -0.774,1.479 -1.268,3.052 -1.502,4.743 -0.329,2.442 -1.033,4.837 -2.161,7.091 -1.08,2.254 -2.582,4.368 -4.461,6.246 -1.691,1.691 -3.592,3.076 -5.612,4.109 -9.556,5.095 -21.883,3.052 -29.209,-6.105 -3.358,-4.203 -5.072,-9.392 -5.025,-14.558 -0.024,-0.634 0,-1.315 0.07,-1.949 0.141,-1.925 0.517,-3.803 1.151,-5.658 l 0.024,-0.024 c 0.422,-1.221 0.939,-2.442 1.596,-3.569 0.61,-1.174 1.315,-2.254 2.16,-3.287 2.254,-2.865 5.025,-5.025 8.054,-6.504 2.277,-1.104 4.673,-1.808 7.114,-2.137 0.423,-0.047 0.822,-0.117 1.221,-0.235 0.423,-0.094 0.846,-0.188 1.221,-0.328 0.799,-0.236 1.55,-0.564 2.255,-0.94 1.455,-0.704 2.77,-1.69 3.921,-2.841 L -119.234,0 -136.24,-17.005 c 0.12,-0.167 0.244,-0.332 0.354,-0.506 0.848,0.343 1.635,0.694 2.33,1.049 h 0.001 c 0.065,0.09 0.132,0.18 0.203,0.268 1.506,1.89 3.816,2.921 6.033,3.884 1.879,0.817 3.759,1.632 5.64,2.449 0.615,0.267 1.232,0.534 1.853,0.792 1.335,0.852 2.901,1.495 3.896,2.143 3.501,2.279 6.61,5.087 9.865,7.69 1.805,1.442 3.656,2.831 5.634,4.028 0.572,0.345 1.188,0.686 1.856,0.682 0.106,0 0.212,-0.013 0.316,-0.036 0.441,-0.096 0.849,-0.383 1.011,-0.774 h 0.001 c 0.001,-0.002 0.001,-0.005 0.002,-0.008 0.005,-0.011 0.01,-0.024 0.014,-0.036 0.003,-0.007 0.005,-0.013 0.007,-0.02 0.003,-0.009 0.006,-0.019 0.009,-0.028 0.005,-0.016 0.011,-0.031 0.014,-0.047 10e-4,-0.004 0.002,-0.009 0.003,-0.013 0.002,-0.008 0.004,-0.017 0.005,-0.025 0.001,-0.001 0.001,-0.002 0.001,-0.003 0,-0.002 0,-0.005 10e-4,-0.007 0.005,-0.026 0.009,-0.053 0.012,-0.08 0.001,-0.006 0.003,-0.013 0.004,-0.02 10e-4,-0.017 0.002,-0.035 0.003,-0.052 0.014,-0.478 -0.307,-0.891 -0.612,-1.258 -0.021,-0.025 -0.041,-0.05 -0.062,-0.074 -0.06,-0.073 -0.121,-0.146 -0.181,-0.219 0,0 0,10e-4 0.001,0.002 -0.001,-10e-4 -0.001,-0.002 -0.002,-0.002 -0.245,-0.296 -0.491,-0.592 -0.737,-0.887 -0.001,-0.001 -0.001,-0.002 -0.001,-0.002 0,0 0.001,10e-4 0.001,0.002 -0.813,-0.977 -1.63,-1.949 -2.46,-2.91 -0.025,-0.03 -0.051,-0.059 -0.077,-0.089 -0.464,-0.537 -0.933,-1.07 -1.408,-1.598 -0.024,-0.027 -0.048,-0.054 -0.073,-0.081 -0.031,-0.036 -0.063,-0.071 -0.095,-0.106 -0.09,-0.099 -0.18,-0.198 -0.27,-0.297 -0.012,-0.014 -0.025,-0.027 -0.037,-0.04 -0.028,-0.032 -0.056,-0.063 -0.085,-0.094 -0.026,-0.028 -0.053,-0.057 -0.079,-0.085 -0.101,-0.11 -0.201,-0.219 -0.302,-0.328 -0.01,-0.011 -0.021,-0.022 -0.031,-0.033 -0.067,-0.072 -0.133,-0.143 -0.2,-0.214 -0.081,-0.086 -0.161,-0.172 -0.243,-0.258 -0.029,-0.031 -0.058,-0.062 -0.088,-0.093 -0.069,-0.074 -0.139,-0.147 -0.209,-0.22 -0.212,-0.223 -0.426,-0.443 -0.642,-0.663 -0.012,-0.012 -0.023,-0.024 -0.035,-0.036 -0.096,-0.097 -0.192,-0.195 -0.289,-0.291 -0.018,-0.019 -0.038,-0.038 -0.057,-0.057 -0.054,-0.055 -0.109,-0.11 -0.165,-0.165 -0.023,-0.022 -0.045,-0.045 -0.068,-0.068 -0.09,-0.089 -0.18,-0.179 -0.272,-0.268 -0.013,-0.013 -0.026,-0.026 -0.04,-0.039 -0.045,-0.043 -0.09,-0.087 -0.135,-0.131 -0.043,-0.042 -0.086,-0.084 -0.129,-0.125 -0.102,-0.098 -0.205,-0.197 -0.307,-0.294 -10e-4,-0.066 0.001,-0.132 0.005,-0.198 0.044,-0.823 0.402,-1.578 1.347,-1.837 0.383,-0.104 0.786,-0.076 1.182,-0.043 0.68,0.058 1.357,0.132 2.034,0.221 0.919,0.337 1.833,0.686 2.746,1.039 0.058,0.022 0.116,0.045 0.175,0.068 0.072,0.027 0.145,0.056 0.218,0.085 0.669,0.258 1.337,0.519 2.007,0.777 0.057,0.023 0.114,0.045 0.171,0.067 h 0.001 c 0.054,0.02 0.106,0.042 0.16,0.061 0.521,0.202 1.043,0.4 1.567,0.597 2.668,0.998 5.375,1.921 8.163,2.527 1.738,0.378 4.156,0.892 5.204,-1.091 0.044,-0.082 0.079,-0.162 0.106,-0.24 0.007,-0.017 0.013,-0.035 0.018,-0.052 0.002,-0.005 0.003,-0.009 0.004,-0.014 0.002,-0.008 0.005,-0.016 0.007,-0.024 0.002,-0.005 0.004,-0.01 0.005,-0.014 0.002,-0.009 0.004,-0.017 0.006,-0.025 0.005,-0.02 0.01,-0.041 0.014,-0.061 0.001,-0.005 0.003,-0.011 0.004,-0.016 0.003,-0.012 0.005,-0.024 0.007,-0.036 0,-10e-4 0,-0.002 0,-0.003 10e-4,-0.006 0.002,-0.011 0.003,-0.017 0.006,-0.046 0.011,-0.091 0.013,-0.135 0,-0.001 0,-0.002 0,-0.003 0,-0.006 0,-0.012 0,-0.019 0,-0.012 0.001,-0.024 0.001,-0.036 0,-0.007 -0.001,-0.013 -0.001,-0.02 0,-0.003 0,-0.006 0,-0.009 -10e-4,-0.012 -10e-4,-0.025 -10e-4,-0.037 l -0.001,-0.003 c -0.001,-0.018 -0.003,-0.036 -0.005,-0.053 -0.002,-0.013 -0.003,-0.025 -0.005,-0.037 -0.002,-0.01 -0.003,-0.019 -0.005,-0.028 -0.007,-0.039 -0.017,-0.077 -0.028,-0.114 -0.002,-0.007 -0.003,-0.013 -0.006,-0.02 0,-0.002 0,-0.003 -0.001,-0.004 -0.004,-0.017 -0.01,-0.032 -0.016,-0.048 -0.002,-0.005 -0.003,-0.009 -0.005,-0.013 -0.006,-0.019 -0.014,-0.038 -0.022,-0.056 -10e-4,-0.001 -10e-4,-0.003 -0.002,-0.004 -0.005,-0.014 -0.012,-0.028 -0.02,-0.042 -0.003,-0.006 -0.006,-0.013 -0.01,-0.02 -0.004,-0.008 -0.008,-0.015 -0.012,-0.023 0,-0.001 -0.001,-0.002 -0.002,-0.003 -0.002,-0.004 -0.004,-0.007 -0.005,-0.011 -0.01,-0.018 -0.02,-0.036 -0.031,-0.053 -0.007,-0.012 -0.014,-0.023 -0.022,-0.035 -0.006,-0.009 -0.011,-0.018 -0.018,-0.028 -0.004,-0.007 -0.008,-0.013 -0.013,-0.02 -0.008,-0.011 -0.015,-0.022 -0.023,-0.032 -0.004,-0.006 -0.01,-0.012 -0.015,-0.019 -0.018,-0.024 -0.037,-0.048 -0.058,-0.072 -0.005,-0.007 -0.01,-0.014 -0.016,-0.02 -0.013,-0.015 -0.027,-0.031 -0.041,-0.046 -0.007,-0.008 -0.014,-0.014 -0.021,-0.022 -0.003,-0.004 -0.007,-0.007 -0.011,-0.011 -0.003,-0.004 -0.006,-0.008 -0.01,-0.011 -0.008,-0.009 -0.017,-0.017 -0.025,-0.025 -0.034,-0.034 -0.07,-0.067 -0.107,-0.1 -0.002,-0.002 -0.004,-0.004 -0.006,-0.005 -0.003,-0.003 -0.006,-0.006 -0.009,-0.008 -0.013,-0.011 -0.025,-0.021 -0.037,-0.032 -0.001,0 -0.002,-0.001 -0.004,-0.002 -0.007,-0.008 -0.016,-0.014 -0.024,-0.021 -0.008,-0.008 -0.017,-0.014 -0.026,-0.021 -0.017,-0.013 -0.034,-0.027 -0.052,-0.04 -0.001,-0.001 -0.003,-0.002 -0.004,-0.003 -0.029,-0.022 -0.058,-0.044 -0.088,-0.065 -0.006,-0.004 -0.011,-0.008 -0.017,-0.012 -0.007,-0.006 -0.015,-0.011 -0.023,-0.016 -0.12,-0.083 -0.249,-0.162 -0.384,-0.238 -0.006,-0.003 -0.011,-0.006 -0.016,-0.009 -0.11,-0.061 -0.224,-0.12 -0.341,-0.176 0,0 -0.001,-0.001 -0.001,-0.001 -10e-4,0 -10e-4,0 -0.002,-0.001 -0.041,-0.02 -0.082,-0.039 -0.123,-0.058 -0.01,-0.005 -0.02,-0.01 -0.03,-0.014 -0.012,-0.006 -0.023,-0.011 -0.035,-0.016 -0.058,-0.026 -0.116,-0.053 -0.175,-0.078 -0.009,-0.004 -0.018,-0.008 -0.027,-0.012 -0.009,-0.004 -0.018,-0.007 -0.027,-0.011 -0.064,-0.028 -0.128,-0.055 -0.193,-0.081 -0.007,-0.003 -0.013,-0.005 -0.02,-0.008 -0.007,-0.003 -0.015,-0.006 -0.022,-0.009 -0.055,-0.022 -0.109,-0.044 -0.163,-0.065 -0.018,-0.007 -0.036,-0.015 -0.054,-0.022 -0.053,-0.02 -0.106,-0.04 -0.158,-0.061 -0.01,-0.003 -0.019,-0.007 -0.029,-0.011 -0.117,-0.044 -0.233,-0.087 -0.346,-0.129 -0.105,-0.039 -0.207,-0.077 -0.305,-0.113 -0.048,-0.017 -0.095,-0.035 -0.139,-0.053 -0.046,-0.017 -0.091,-0.033 -0.134,-0.05 -0.038,-0.015 -0.076,-0.029 -0.112,-0.044 -0.061,-0.024 -0.12,-0.048 -0.176,-0.072 -0.009,-0.003 -0.018,-0.007 -0.027,-0.011 -0.016,-0.007 -0.032,-0.014 -0.048,-0.021 -0.01,-0.004 -0.02,-0.009 -0.03,-0.013 -0.023,-0.011 -0.047,-0.021 -0.069,-0.032 -0.807,-0.379 -1.614,-0.759 -2.421,-1.138 -1.749,-0.822 -3.497,-1.644 -5.245,-2.466 -0.039,-0.018 -0.078,-0.037 -0.116,-0.055 -0.128,-0.059 -0.255,-0.12 -0.382,-0.18 l -0.001,0.001 c -0.088,-0.042 -0.177,-0.083 -0.265,-0.125 -0.008,-0.003 -0.015,-0.007 -0.022,-0.01 -0.511,-0.239 -1.024,-0.478 -1.537,-0.713 -0.065,-0.029 -0.129,-0.059 -0.194,-0.089 -0.14,-0.064 -0.281,-0.127 -0.422,-0.191 -0.087,-0.04 -0.175,-0.08 -0.263,-0.119 -0.045,-0.02 -0.09,-0.04 -0.134,-0.06 -0.006,-0.002 -0.013,-0.005 -0.019,-0.008 -0.006,-0.003 -0.013,-0.005 -0.019,-0.008 -0.032,-0.015 -0.064,-0.029 -0.096,-0.043 -0.105,-0.046 -0.21,-0.092 -0.314,-0.139 -0.128,-0.055 -0.254,-0.111 -0.382,-0.166 -0.025,-0.01 -0.05,-0.021 -0.075,-0.032 -0.1,-0.044 -0.2,-0.087 -0.3,-0.129 -0.134,-0.056 -0.267,-0.112 -0.401,-0.168 -0.049,-0.021 -0.098,-0.042 -0.147,-0.063 -0.001,10e-4 0,0 -0.001,0 -0.175,-0.072 -0.35,-0.145 -0.526,-0.215 -0.02,-0.009 -0.041,-0.017 -0.062,-0.025 -0.048,-0.02 -0.096,-0.038 -0.144,-0.057 -0.053,-0.022 -0.106,-0.043 -0.159,-0.064 -0.021,-0.008 -0.041,-0.016 -0.062,-0.024 -0.09,-0.036 -0.179,-0.071 -0.269,-0.105 -0.144,-0.057 -0.289,-0.112 -0.434,-0.167 -0.003,-10e-4 -0.007,-0.002 -0.01,-0.004 -0.007,-0.002 -0.014,-0.005 -0.022,-0.008 0,0 10e-4,0.001 10e-4,0.001 0,0 -10e-4,0 -10e-4,0 v -0.001 c -0.104,-0.039 -0.208,-0.078 -0.312,-0.116 0.119,-0.256 0.23,-0.515 0.332,-0.779 5.76,0.143 11.504,0.934 17.086,2.359 2.179,0.556 5.182,1.251 6.9,-0.776 1.773,-2.092 -1.045,-3.647 -2.794,-4.009 -0.647,-0.134 -1.295,-0.268 -1.942,-0.403 l -0.001,0.001 c -1.415,-0.293 -2.831,-0.586 -4.246,-0.879 -1.602,-0.331 -3.205,-0.663 -4.807,-0.994 -0.627,-0.13 -1.254,-0.259 -1.882,-0.389 -0.269,-0.056 -0.539,-0.112 -0.809,-0.167 -0.469,-0.097 -0.938,-0.193 -1.408,-0.286 -0.738,-0.148 -1.477,-0.29 -2.217,-0.424 -0.082,-0.015 -0.164,-0.03 -0.246,-0.045 -0.014,-0.002 -0.028,-0.005 -0.041,-0.007 -0.081,-0.014 -0.161,-0.029 -0.242,-0.043 -0.004,0 -0.009,-10e-4 -0.013,-0.002 -0.011,-0.002 -0.022,-0.003 -0.033,-0.005 -0.282,-0.05 -0.565,-0.097 -0.847,-0.142 -0.035,-0.006 -0.069,-0.013 -0.104,-0.018 -0.112,-0.017 -0.224,-0.035 -0.336,-0.052 -0.052,-0.008 -0.104,-0.017 -0.156,-0.025 -0.014,-0.003 -0.03,-0.005 -0.045,-0.007 v 0 0 c 0,0 0,0 0.001,10e-4 -0.129,-0.02 -0.259,-0.042 -0.388,-0.061 0.046,-0.312 0.096,-0.652 0.142,-1.009 0.859,-0.184 1.776,-0.261 2.619,-0.407 2.342,-0.405 4.687,-0.794 7.04,-1.125 2.55,-0.358 5.111,-0.649 7.682,-0.82 0.925,-0.061 1.882,-0.114 2.71,-0.532 0.734,-0.37 1.343,-1.112 1.364,-1.914 v -0.001 c 0.001,-0.029 0.001,-0.059 0,-0.087 0,-0.013 -10e-4,-0.026 -0.002,-0.039 -0.001,-0.017 -0.002,-0.034 -0.004,-0.051 0,-0.014 -10e-4,-0.028 -0.004,-0.042 -0.001,-0.008 -0.001,-0.015 -0.002,-0.023 -0.002,-0.019 -0.004,-0.037 -0.007,-0.055 -0.001,-0.003 -0.001,-0.007 -0.002,-0.011 -0.076,-0.458 -0.321,-0.818 -0.663,-1.098 -0.509,-0.416 -1.236,-0.654 -1.951,-0.775 -0.202,-0.034 -0.403,-0.059 -0.598,-0.076 -4.551,-0.398 -9.138,0.048 -13.68,0.059 -0.001,0 -0.003,0 -0.005,0 -0.159,0 -0.317,-10e-4 -0.476,-0.002 -0.058,0 -0.115,0 -0.173,0 -2.161,-0.017 -4.312,-0.146 -6.443,-0.525 -0.489,-0.266 -1.019,-0.495 -1.57,-0.697 -1.917,-0.703 -4.097,-1.077 -5.75,-1.482 -0.055,-0.013 -0.111,-0.026 -0.166,-0.04 -0.001,0 -0.003,0 -0.004,-10e-4 -0.165,-0.04 -0.329,-0.079 -0.493,-0.119 0.215,-1.09 0.643,-2.122 1.647,-2.979 1.569,-1.337 3.697,-1.746 5.689,-2.275 1.992,-0.529 4.102,-1.347 5.153,-3.121 0.386,-0.65 0.602,-1.456 0.35,-2.17 -0.026,-0.071 -0.055,-0.14 -0.088,-0.205 -0.003,-0.005 -0.005,-0.009 -0.007,-0.014 -0.099,-0.193 -0.228,-0.364 -0.382,-0.513 -0.004,-0.003 -0.007,-0.007 -0.011,-0.01 -0.007,-0.008 -0.015,-0.015 -0.023,-0.022 -0.031,-0.029 -0.063,-0.056 -0.096,-0.083 -0.004,-0.004 -0.009,-0.009 -0.014,-0.012 -0.027,-0.023 -0.055,-0.045 -0.084,-0.066 -0.004,-0.002 -0.008,-0.005 -0.012,-0.008 -0.039,-0.029 -0.081,-0.056 -0.122,-0.083 -0.015,-0.01 -0.03,-0.02 -0.046,-0.029 -0.003,-0.003 -0.008,-0.005 -0.012,-0.007 -0.059,-0.036 -0.12,-0.069 -0.182,-0.101 -0.01,-0.005 -0.02,-0.009 -0.03,-0.014 -0.059,-0.029 -0.119,-0.057 -0.181,-0.082 -0.011,-0.004 -0.023,-0.009 -0.035,-0.014 -0.062,-0.024 -0.125,-0.047 -0.19,-0.069 -0.009,-0.002 -0.018,-0.005 -0.026,-0.008 -0.11,-0.035 -0.222,-0.064 -0.336,-0.089 -0.017,-0.004 -0.033,-0.007 -0.05,-0.011 -0.004,-0.001 -0.009,-0.001 -0.013,-0.002 -0.328,-0.065 -0.667,-0.086 -0.991,-0.067 -0.019,10e-4 -0.038,0.003 -0.056,0.005 -0.041,0.002 -0.081,0.005 -0.121,0.009 -0.006,0 -0.012,10e-4 -0.018,0.002 -0.656,0.061 -1.299,0.228 -1.945,0.369 -0.089,0.019 -0.178,0.038 -0.267,0.056 -0.037,0.008 -0.074,0.015 -0.11,0.022 -0.09,0.017 -0.181,0.034 -0.272,0.049 0,0 0,0 0,0 -0.109,0.018 -0.217,0.034 -0.325,0.048 -0.03,0.004 -0.059,0.007 -0.089,0.011 -0.028,0.003 -0.057,0.006 -0.085,0.009 -0.066,0.006 -0.132,0.012 -0.198,0.016 -0.072,0.005 -0.145,0.008 -0.218,0.01 -0.011,0 -0.022,10e-4 -0.034,10e-4 -0.024,0 -0.049,0 -0.073,10e-4 -0.046,0 -0.091,0.001 -0.137,0.001 -0.034,-0.001 -0.067,-0.001 -0.101,-0.002 -0.052,-10e-4 -0.103,-0.002 -0.155,-0.004 -0.019,-0.001 -0.038,-0.001 -0.057,-0.002 -0.014,-10e-4 -0.028,-10e-4 -0.043,-0.002 -0.046,-0.002 -0.093,-0.005 -0.14,-0.007 -0.017,-10e-4 -0.034,-0.002 -0.051,-0.003 -0.338,-0.021 -0.678,-0.053 -1.016,-0.08 -0.003,0 -0.007,0 -0.011,-10e-4 -0.06,-0.004 -0.121,-0.008 -0.181,-0.013 -0.034,-0.002 -0.068,-0.004 -0.102,-0.006 -0.047,-0.003 -0.095,-0.006 -0.143,-0.008 -0.044,-0.003 -0.088,-0.005 -0.132,-0.006 -0.041,-0.002 -0.082,-0.003 -0.123,-0.004 -0.051,-0.002 -0.101,-0.002 -0.152,-0.003 -0.035,0 -0.07,0 -0.105,0 -0.058,0 -0.116,0.002 -0.174,0.004 -0.018,0 -0.037,0 -0.055,10e-4 -0.02,10e-4 -0.039,0.002 -0.058,0.003 -0.018,10e-4 -0.035,10e-4 -0.053,0.002 -0.002,10e-4 -0.005,10e-4 -0.008,10e-4 -0.05,0.003 -0.099,0.007 -0.148,0.011 -0.013,10e-4 -0.026,0.003 -0.039,0.004 -0.02,0.002 -0.039,0.004 -0.059,0.006 -0.003,0 -0.006,10e-4 -0.009,10e-4 -0.032,0.004 -0.065,0.008 -0.097,0.013 -0.03,0.003 -0.061,0.008 -0.092,0.012 -0.025,0.005 -0.05,0.009 -0.076,0.014 -0.007,10e-4 -0.014,0.002 -0.021,0.003 -0.022,0.004 -0.043,0.008 -0.062,0.012 -0.027,0.005 -0.052,0.01 -0.078,0.016 -0.013,0.003 -0.027,0.005 -0.041,0.008 -0.126,0.028 -0.25,0.064 -0.373,0.103 -0.003,10e-4 -0.006,0.002 -0.009,0.003 -0.006,0.002 -0.011,0.004 -0.017,0.006 -0.502,0.165 -0.977,0.41 -1.454,0.647 -0.064,0.031 -0.128,0.063 -0.192,0.094 -0.064,0.031 -0.127,0.061 -0.191,0.092 -0.027,0.012 -0.054,0.025 -0.08,0.037 -0.051,0.023 -0.101,0.046 -0.151,0.068 -0.015,0.007 -0.03,0.014 -0.045,0.02 -0.41,0.178 -0.829,0.321 -1.256,0.44 -1.218,0.34 -2.495,0.482 -3.764,0.66 -0.776,0.109 -1.549,0.232 -2.304,0.422 -0.026,0.007 -0.053,0.015 -0.08,0.022 -0.058,0.015 -0.116,0.03 -0.173,0.045 -0.006,0.002 -0.012,0.003 -0.017,0.005 -0.151,0.041 -0.3,0.086 -0.449,0.132 -0.023,0.008 -0.048,0.015 -0.071,0.022 -0.009,0.003 -0.018,0.006 -0.026,0.009 -0.045,0.014 -0.089,0.029 -0.134,0.044 -0.032,0.01 -0.065,0.021 -0.097,0.032 -0.007,0.002 -0.014,0.005 -0.022,0.007 -0.126,0.044 -0.253,0.089 -0.379,0.135 -0.004,0.002 -0.009,0.003 -0.013,0.005 -0.061,0.023 -0.122,0.045 -0.182,0.069 -0.004,0.002 -0.006,0.003 -0.01,0.004 -0.085,0.033 -0.171,0.068 -0.256,0.102 -10e-4,10e-4 -0.002,10e-4 -0.004,0.002 0,0 0,0 -0.001,0 -0.041,0.017 -0.082,0.034 -0.123,0.051 -0.008,0.004 -0.016,0.007 -0.025,0.011 -0.023,0.009 -0.047,0.02 -0.071,0.03 -0.032,0.014 -0.064,0.027 -0.096,0.041 -0.012,0.005 -0.025,0.01 -0.037,0.016 -0.15,0.064 -0.299,0.133 -0.447,0.202 -0.005,0.002 -0.009,0.005 -0.013,0.007 -0.153,0.071 -0.304,0.146 -0.454,0.221 -0.017,0.009 -0.034,0.017 -0.05,0.025 -0.003,0.002 -0.006,0.003 -0.009,0.005 -0.309,0.157 -0.614,0.322 -0.916,0.494 0,0 0,10e-4 -0.001,10e-4 v 0 c -1.421,0.81 -2.772,1.773 -4.092,2.74 -0.695,0.509 -1.389,1.025 -2.07,1.556 -0.058,0.045 -0.117,0.091 -0.175,0.136 -0.028,0.022 -0.056,0.044 -0.084,0.067 -0.082,0.065 -0.164,0.13 -0.246,0.195 -0.063,0.052 -0.127,0.103 -0.191,0.154 -0.095,0.077 -0.189,0.154 -0.283,0.231 -0.028,0.024 -0.057,0.046 -0.085,0.07 -0.028,0.023 -0.056,0.047 -0.084,0.071 -0.084,0.07 -0.168,0.14 -0.252,0.211 -0.043,0.036 -0.087,0.072 -0.13,0.109 -0.068,0.058 -0.136,0.117 -0.203,0.176 -0.009,0.008 -0.017,0.015 -0.026,0.022 -0.741,-0.293 -1.501,-0.545 -2.258,-0.79 -0.227,-0.073 -0.454,-0.145 -0.681,-0.218 -0.009,-0.003 -0.019,-0.006 -0.028,-0.009 -0.022,-0.821 -0.105,-1.635 -0.278,-2.421 -0.236,-1.076 -0.64,-2.095 -1.288,-2.996 -0.419,-0.582 -1.086,-1.146 -1.777,-0.955 -0.03,0.009 -0.06,0.018 -0.089,0.029 -0.001,-0.014 -0.003,-0.028 -0.004,-0.042 -1.869,0.987 -4.138,0.581 -6.196,0.104 -2.615,-0.606 -5.216,-1.288 -7.751,-2.169 -0.363,-0.126 -0.738,-0.258 -1.121,-0.233 -0.453,0.031 -0.86,0.277 -1.226,0.544 l -0.086,-0.181 31.941,-31.94 c 0.023,0.023 0.047,0.047 0.047,0.047 l 0.305,0.305 c 2.16,2.301 3.592,5.189 4.039,8.312 0.775,5.706 3.639,11.2 8.64,15.168 8.43,6.739 20.64,6.739 29.046,-0.023 11.059,-8.852 11.717,-25.054 1.972,-34.798 -3.757,-3.757 -8.453,-5.964 -13.313,-6.645 -3.17,-0.446 -6.035,-1.855 -8.359,-4.039 l -0.305,-0.305 c -0.024,-0.024 -0.024,-0.024 -0.047,-0.047 l 37.592,-37.592 37.592,37.592 0.047,-0.047 c 0.023,-0.023 0.047,-0.047 0.047,-0.047 0.869,-0.869 1.62,-1.808 2.23,-2.841 0.236,-0.329 0.423,-0.704 0.611,-1.08 0.751,-1.456 1.221,-3.052 1.456,-4.696 0.352,-2.466 1.057,-4.861 2.207,-7.138 0.54,-1.151 1.198,-2.231 1.949,-3.264 0.728,-1.057 1.573,-2.043 2.512,-2.982 1.127,-1.127 2.325,-2.09 3.593,-2.935 9.768,-6.434 23.363,-4.767 31.182,4.978 5.894,7.349 6.622,17.657 2.231,25.711 -0.306,0.587 -0.658,1.174 -1.01,1.714 -0.352,0.54 -0.728,1.057 -1.127,1.55 -1.433,1.808 -3.053,3.334 -4.814,4.578 -3.146,2.301 -6.762,3.663 -10.449,4.156 -2.042,0.259 -3.991,0.987 -5.729,2.067 -1.01,0.587 -1.972,1.362 -2.817,2.207 0,0 -0.024,0.023 -0.047,0.047 L 0,-75.184 17.005,-58.179 c -0.12,0.168 -0.244,0.332 -0.354,0.506 -0.848,-0.343 -1.634,-0.694 -2.329,-1.049 h -10e-4 c -0.066,-0.09 -0.133,-0.18 -0.203,-0.268 -1.507,-1.891 -3.816,-2.921 -6.033,-3.884 -1.88,-0.817 -3.76,-1.632 -5.641,-2.449 -0.614,-0.267 -1.232,-0.534 -1.852,-0.792 -1.335,-0.852 -2.901,-1.495 -3.896,-2.143 -3.501,-2.279 -6.61,-5.087 -9.866,-7.69 -1.804,-1.442 -3.656,-2.831 -5.633,-4.028 -0.572,-0.345 -1.189,-0.686 -1.857,-0.682 -0.105,0 -0.211,0.013 -0.315,0.036 -0.441,0.096 -0.85,0.383 -1.012,0.774 v 0 c -0.001,0.002 -0.002,0.005 -0.003,0.007 -0.005,0.012 -0.01,0.025 -0.014,0.037 -0.003,0.007 -0.004,0.013 -0.007,0.02 -0.003,0.009 -0.006,0.019 -0.009,0.028 -0.005,0.016 -0.01,0.031 -0.013,0.047 -10e-4,0.004 -0.002,0.009 -0.003,0.013 -0.002,0.008 -0.004,0.017 -0.006,0.025 0,0.001 0,0.002 -10e-4,0.003 0,0.002 0,0.005 -0.001,0.007 -0.005,0.026 -0.009,0.053 -0.012,0.08 -10e-4,0.006 -0.003,0.013 -0.003,0.02 -0.002,0.017 -0.002,0.035 -0.003,0.052 -0.014,0.478 0.307,0.891 0.611,1.258 0.021,0.025 0.042,0.05 0.062,0.074 0.061,0.073 0.121,0.146 0.182,0.219 -10e-4,-0.001 -10e-4,-0.001 -10e-4,-0.002 0,10e-4 0,0.002 10e-4,0.002 0.245,0.297 0.491,0.592 0.738,0.887 0,0.001 0.001,0.001 0.001,0.002 0,-10e-4 -0.001,-10e-4 -0.002,-10e-4 0.813,0.976 1.63,1.948 2.46,2.909 0.026,0.029 0.051,0.059 0.077,0.089 0.465,0.537 0.934,1.07 1.408,1.598 0.025,0.027 0.049,0.054 0.073,0.081 0.032,0.036 0.064,0.071 0.096,0.106 0.09,0.099 0.179,0.198 0.27,0.297 0.012,0.014 0.024,0.027 0.036,0.04 0.028,0.032 0.057,0.063 0.085,0.094 0.027,0.028 0.053,0.057 0.079,0.085 0.101,0.11 0.202,0.219 0.303,0.328 0.01,0.011 0.02,0.022 0.031,0.033 0.066,0.072 0.133,0.143 0.199,0.214 0.081,0.086 0.162,0.172 0.243,0.258 0.029,0.031 0.058,0.062 0.088,0.093 0.07,0.074 0.14,0.147 0.21,0.22 0.212,0.223 0.426,0.443 0.641,0.663 0.012,0.012 0.023,0.024 0.035,0.036 0.096,0.097 0.192,0.195 0.289,0.291 0.019,0.019 0.038,0.038 0.057,0.057 0.055,0.055 0.11,0.11 0.165,0.165 0.023,0.022 0.045,0.045 0.068,0.068 0.09,0.089 0.181,0.179 0.272,0.268 0.014,0.013 0.027,0.026 0.04,0.039 0.045,0.043 0.09,0.087 0.135,0.131 0.043,0.042 0.086,0.084 0.13,0.125 0.101,0.098 0.204,0.197 0.306,0.294 10e-4,0.066 -0.001,0.132 -0.004,0.198 -0.044,0.823 -0.403,1.578 -1.347,1.837 -0.383,0.104 -0.787,0.076 -1.182,0.043 -0.68,-0.058 -1.358,-0.132 -2.034,-0.221 -0.919,-0.337 -1.833,-0.686 -2.746,-1.039 -0.059,-0.022 -0.117,-0.045 -0.175,-0.067 -0.073,-0.028 -0.146,-0.057 -0.218,-0.086 -0.67,-0.258 -1.338,-0.519 -2.008,-0.777 -0.057,-0.023 -0.113,-0.046 -0.171,-0.067 v 0 c -0.054,-0.02 -0.107,-0.041 -0.161,-0.062 -0.521,-0.201 -1.043,-0.399 -1.566,-0.596 -2.668,-0.998 -5.375,-1.921 -8.164,-2.527 -1.738,-0.378 -4.156,-0.892 -5.204,1.091 -0.043,0.082 -0.079,0.162 -0.106,0.24 -0.006,0.017 -0.012,0.035 -0.018,0.052 -0.001,0.005 -0.002,0.009 -0.004,0.014 -0.002,0.008 -0.005,0.016 -0.007,0.024 -0.002,0.005 -0.003,0.01 -0.005,0.014 -0.002,0.009 -0.003,0.017 -0.005,0.025 -0.006,0.021 -0.011,0.041 -0.015,0.06 -10e-4,0.006 -0.003,0.012 -0.004,0.017 -0.002,0.012 -0.004,0.024 -0.006,0.036 0,10e-4 0,0.002 -0.001,0.003 0,0.006 -10e-4,0.011 -0.002,0.017 -0.007,0.046 -0.012,0.091 -0.013,0.135 0,10e-4 0,0.002 0,0.003 -10e-4,0.006 0,0.012 -10e-4,0.018 0,0.013 0,0.025 0,0.037 0,0.007 0,0.013 0,0.02 10e-4,0.003 10e-4,0.006 10e-4,0.009 0,0.013 0,0.025 0.001,0.037 v 0.003 c 10e-4,0.018 0.004,0.036 0.006,0.053 10e-4,0.013 0.002,0.025 0.004,0.037 0.002,0.01 0.003,0.019 0.005,0.028 0.007,0.039 0.017,0.077 0.028,0.114 0.002,0.007 0.004,0.014 0.006,0.02 10e-4,0.002 10e-4,0.003 10e-4,0.004 0.005,0.017 0.011,0.032 0.016,0.048 0.002,0.005 0.003,0.009 0.005,0.013 0.007,0.019 0.015,0.038 0.022,0.056 0.001,10e-4 0.002,0.003 0.002,0.004 0.006,0.014 0.012,0.028 0.02,0.042 0.004,0.006 0.007,0.013 0.01,0.02 0.004,0.008 0.008,0.015 0.012,0.023 10e-4,10e-4 10e-4,0.002 0.002,0.003 0.002,0.004 0.004,0.007 0.006,0.011 0.01,0.018 0.02,0.036 0.03,0.053 0.007,0.012 0.015,0.023 0.022,0.035 0.006,0.009 0.012,0.018 0.018,0.028 0.005,0.007 0.009,0.013 0.014,0.02 0.007,0.01 0.014,0.022 0.022,0.032 0.005,0.006 0.01,0.012 0.015,0.019 0.018,0.024 0.038,0.048 0.058,0.072 0.006,0.007 0.01,0.014 0.016,0.02 0.013,0.015 0.027,0.031 0.041,0.046 0.007,0.008 0.014,0.014 0.021,0.022 0.004,0.004 0.007,0.007 0.011,0.011 0.004,0.004 0.007,0.008 0.011,0.011 0.008,0.009 0.016,0.017 0.025,0.025 0.034,0.034 0.069,0.067 0.106,0.1 0.003,0.001 0.004,0.004 0.006,0.005 0.003,0.003 0.007,0.005 0.01,0.008 0.012,0.011 0.024,0.021 0.037,0.032 0.001,0 0.002,0.001 0.003,0.002 0.008,0.008 0.016,0.014 0.024,0.021 0.008,0.007 0.017,0.014 0.026,0.021 0.017,0.013 0.035,0.027 0.053,0.04 0,10e-4 0.002,0.002 0.003,0.003 0.029,0.022 0.059,0.044 0.089,0.065 0.005,0.004 0.01,0.008 0.016,0.012 0.008,0.005 0.015,0.011 0.023,0.016 0.12,0.083 0.249,0.162 0.385,0.238 0.005,0.003 0.01,0.006 0.016,0.009 0.109,0.061 0.223,0.12 0.34,0.176 10e-4,0 10e-4,0.001 0.002,0.001 0,0 10e-4,0 10e-4,0.001 0.041,0.02 0.082,0.039 0.123,0.058 0.011,0.005 0.02,0.01 0.03,0.014 0.012,0.006 0.024,0.011 0.035,0.016 0.058,0.026 0.117,0.052 0.175,0.078 0.01,0.004 0.018,0.008 0.027,0.012 0.009,0.004 0.018,0.007 0.027,0.011 0.064,0.028 0.129,0.054 0.194,0.081 0.006,0.003 0.012,0.005 0.019,0.008 0.007,0.003 0.015,0.006 0.023,0.009 0.054,0.022 0.108,0.044 0.162,0.065 0.018,0.007 0.036,0.015 0.054,0.022 0.053,0.02 0.106,0.04 0.159,0.061 0.009,0.003 0.019,0.007 0.028,0.011 0.118,0.044 0.234,0.087 0.346,0.129 0.105,0.039 0.207,0.077 0.306,0.113 0.047,0.017 0.094,0.035 0.139,0.053 0.045,0.017 0.09,0.033 0.134,0.05 0.037,0.015 0.075,0.029 0.111,0.044 0.062,0.024 0.12,0.048 0.176,0.071 0.009,0.004 0.018,0.008 0.027,0.012 0.017,0.007 0.033,0.014 0.049,0.021 0.01,0.004 0.019,0.009 0.029,0.013 0.024,0.011 0.047,0.021 0.07,0.032 0.807,0.379 1.614,0.759 2.421,1.138 1.748,0.822 3.496,1.644 5.245,2.466 0.038,0.018 0.077,0.036 0.116,0.055 0.127,0.059 0.254,0.12 0.382,0.18 v -10e-4 c 0.089,0.042 0.177,0.083 0.266,0.125 0.007,0.003 0.014,0.007 0.022,0.01 0.511,0.239 1.023,0.478 1.537,0.713 0.064,0.029 0.128,0.059 0.193,0.089 0.141,0.064 0.281,0.127 0.422,0.191 0.088,0.04 0.176,0.08 0.263,0.119 0.045,0.02 0.09,0.04 0.134,0.06 0.007,0.002 0.013,0.005 0.02,0.008 0.006,0.003 0.012,0.005 0.018,0.008 0.032,0.015 0.064,0.029 0.097,0.043 0.104,0.046 0.209,0.092 0.314,0.139 0.127,0.055 0.254,0.111 0.381,0.166 0.025,0.01 0.05,0.021 0.075,0.032 0.101,0.044 0.201,0.087 0.3,0.129 0.134,0.056 0.268,0.112 0.401,0.168 0.05,0.021 0.098,0.042 0.148,0.063 0,-0.001 0,0 0,0 0.175,0.072 0.351,0.145 0.526,0.215 0.02,0.009 0.041,0.017 0.062,0.025 0.048,0.02 0.096,0.038 0.144,0.057 0.053,0.022 0.107,0.043 0.16,0.064 0.02,0.008 0.041,0.016 0.061,0.024 0.09,0.036 0.18,0.071 0.269,0.105 0.145,0.057 0.29,0.112 0.434,0.167 0.004,10e-4 0.007,0.002 0.011,0.003 0.007,0.003 0.014,0.006 0.021,0.009 0,0 0,-10e-4 0,-10e-4 0,0 0,0 0,0 l 0.001,10e-4 c 0.103,0.039 0.208,0.078 0.312,0.116 -0.12,0.256 -0.23,0.515 -0.333,0.779 -5.759,-0.143 -11.503,-0.934 -17.086,-2.359 -2.178,-0.556 -5.182,-1.251 -6.9,0.776 -1.773,2.092 1.045,3.647 2.794,4.009 0.647,0.134 1.295,0.268 1.943,0.403 V -57.1 c 1.416,0.293 2.831,0.586 4.247,0.879 1.602,0.331 3.204,0.663 4.806,0.994 0.627,0.13 1.255,0.259 1.882,0.389 0.27,0.056 0.54,0.112 0.81,0.167 0.468,0.097 0.938,0.193 1.407,0.286 0.738,0.148 1.477,0.29 2.218,0.424 0.082,0.015 0.163,0.03 0.245,0.045 0.014,0.002 0.028,0.004 0.042,0.007 0.08,0.014 0.161,0.028 0.241,0.043 0.005,0 0.009,10e-4 0.013,0.002 0.011,0.002 0.022,0.004 0.033,0.005 0.282,0.049 0.565,0.097 0.848,0.142 0.034,0.006 0.069,0.013 0.103,0.018 0.112,0.017 0.225,0.035 0.337,0.052 0.052,0.008 0.103,0.017 0.155,0.025 0.015,0.002 0.03,0.005 0.045,0.007 v 0 0 c 0,0 0,0 0,-10e-4 0.129,0.02 0.258,0.042 0.388,0.061 -0.046,0.312 -0.096,0.652 -0.143,1.009 -0.858,0.184 -1.776,0.261 -2.619,0.407 -2.341,0.405 -4.686,0.794 -7.039,1.125 -2.551,0.358 -5.112,0.649 -7.682,0.82 -0.926,0.061 -1.882,0.114 -2.711,0.532 -0.734,0.369 -1.343,1.112 -1.364,1.914 v 10e-4 c -10e-4,0.029 -10e-4,0.059 0,0.087 0.001,0.013 0.002,0.026 0.003,0.039 0,0.017 0.001,0.034 0.003,0.051 0,0.014 0.002,0.028 0.004,0.042 10e-4,0.008 0.002,0.015 0.002,0.023 0.002,0.019 0.005,0.037 0.008,0.055 0,0.003 0,0.007 10e-4,0.01 0.077,0.459 0.321,0.819 0.663,1.099 0.51,0.416 1.237,0.654 1.952,0.775 0.202,0.034 0.402,0.059 0.597,0.076 4.552,0.398 9.138,-0.048 13.68,-0.059 0.002,0 0.004,0 0.006,0 0.158,0 0.317,10e-4 0.475,0.002 0.058,0 0.116,0 0.173,0 2.162,0.016 4.313,0.145 6.443,0.525 0.489,0.266 1.019,0.495 1.57,0.697 1.917,0.703 4.098,1.077 5.75,1.481 0.056,0.014 0.111,0.027 0.167,0.041 0.001,0 0.002,0 0.004,10e-4 0.164,0.04 0.328,0.079 0.492,0.119 -0.215,1.09 -0.643,2.123 -1.647,2.979 -1.569,1.337 -3.696,1.746 -5.689,2.275 -1.992,0.529 -4.101,1.347 -5.153,3.121 -0.385,0.65 -0.602,1.456 -0.349,2.17 0.025,0.071 0.054,0.14 0.088,0.205 0.002,0.005 0.004,0.009 0.007,0.014 0.098,0.193 0.228,0.364 0.382,0.513 0.003,0.003 0.006,0.007 0.01,0.01 0.008,0.008 0.016,0.015 0.024,0.022 0.031,0.029 0.062,0.056 0.095,0.083 0.005,0.004 0.009,0.009 0.014,0.012 0.028,0.023 0.056,0.045 0.085,0.065 0.003,0.003 0.007,0.006 0.011,0.009 0.04,0.029 0.081,0.056 0.123,0.083 0.015,0.01 0.03,0.02 0.045,0.029 0.004,0.003 0.008,0.005 0.012,0.007 0.059,0.036 0.12,0.07 0.182,0.101 0.01,0.005 0.02,0.009 0.03,0.014 0.059,0.029 0.119,0.057 0.181,0.082 0.012,0.004 0.023,0.009 0.035,0.014 0.062,0.025 0.126,0.047 0.19,0.069 0.009,0.002 0.018,0.005 0.027,0.008 0.109,0.035 0.222,0.064 0.335,0.089 0.017,0.004 0.033,0.007 0.051,0.011 0.004,0.001 0.008,0.001 0.012,0.002 0.329,0.065 0.667,0.086 0.992,0.067 0.019,-10e-4 0.037,-0.003 0.056,-0.005 0.04,-0.002 0.081,-0.005 0.12,-0.009 0.007,0 0.012,-10e-4 0.018,-0.002 0.656,-0.061 1.299,-0.228 1.945,-0.369 0.089,-0.019 0.178,-0.038 0.268,-0.056 0.036,-0.008 0.073,-0.015 0.11,-0.022 0.09,-0.017 0.181,-0.034 0.271,-0.049 0.001,0 0.001,0 0.001,0 0.108,-0.018 0.216,-0.034 0.324,-0.048 0.03,-0.004 0.059,-0.007 0.089,-0.011 0.028,-0.003 0.057,-0.006 0.086,-0.009 0.065,-0.006 0.131,-0.012 0.197,-0.017 0.073,-0.004 0.145,-0.007 0.218,-0.009 0.012,0 0.023,-0.001 0.035,-0.001 0.024,0 0.048,0 0.073,-10e-4 0.045,0 0.091,-0.001 0.136,-0.001 0.034,0.001 0.068,0.001 0.101,0.002 0.052,0.001 0.104,0.002 0.156,0.004 0.019,10e-4 0.038,10e-4 0.056,0.002 0.015,0.001 0.029,0.001 0.043,0.002 0.047,0.002 0.093,0.005 0.14,0.007 0.017,0.001 0.034,0.002 0.051,0.003 0.339,0.021 0.678,0.053 1.016,0.08 0.004,0 0.007,0 0.011,0.001 0.06,0.004 0.121,0.008 0.182,0.013 0.033,0.002 0.068,0.004 0.101,0.006 0.048,0.003 0.095,0.006 0.143,0.008 0.044,0.003 0.088,0.005 0.133,0.006 0.04,0.002 0.081,0.003 0.122,0.004 0.051,0.002 0.102,0.002 0.152,0.003 0.035,0 0.07,0 0.106,0 0.057,0 0.115,-0.002 0.173,-0.004 0.018,0 0.037,0 0.056,-0.001 0.019,-0.001 0.038,-0.002 0.058,-0.003 0.017,-0.001 0.035,-0.001 0.052,-0.002 0.003,-0.001 0.006,-0.001 0.009,-0.001 0.049,-0.003 0.098,-0.007 0.147,-0.011 0.013,-0.001 0.026,-0.003 0.039,-0.004 0.02,-0.002 0.04,-0.004 0.06,-0.006 0.002,0 0.005,-10e-4 0.008,-10e-4 0.032,-0.004 0.066,-0.008 0.098,-0.013 0.03,-0.003 0.06,-0.008 0.091,-0.013 0.025,-0.004 0.051,-0.008 0.076,-0.013 0.008,-0.001 0.015,-0.002 0.022,-0.003 0.021,-0.004 0.042,-0.008 0.062,-0.012 0.026,-0.005 0.051,-0.01 0.077,-0.016 0.014,-0.003 0.027,-0.005 0.041,-0.008 0.126,-0.028 0.25,-0.064 0.373,-0.103 0.003,-0.001 0.006,-0.002 0.009,-0.003 0.006,-0.002 0.012,-0.004 0.018,-0.006 0.501,-0.165 0.976,-0.41 1.454,-0.647 0.064,-0.031 0.128,-0.063 0.192,-0.094 0.063,-0.031 0.127,-0.061 0.19,-0.091 0.027,-0.013 0.054,-0.026 0.081,-0.038 0.05,-0.023 0.1,-0.046 0.15,-0.068 0.016,-0.007 0.031,-0.014 0.046,-0.02 0.409,-0.178 0.828,-0.321 1.255,-0.44 1.218,-0.34 2.495,-0.482 3.765,-0.66 0.775,-0.109 1.548,-0.232 2.303,-0.422 0.027,-0.007 0.054,-0.015 0.08,-0.022 0.058,-0.014 0.116,-0.03 0.174,-0.045 0.006,-0.002 0.011,-0.003 0.017,-0.005 0.15,-0.041 0.3,-0.086 0.448,-0.132 0.024,-0.008 0.048,-0.014 0.072,-0.022 0.008,-0.003 0.017,-0.006 0.026,-0.009 0.044,-0.014 0.089,-0.029 0.133,-0.044 0.033,-0.01 0.065,-0.021 0.097,-0.032 0.007,-0.002 0.014,-0.005 0.022,-0.007 0.127,-0.044 0.253,-0.089 0.379,-0.135 0.005,-0.002 0.009,-0.004 0.014,-0.005 0.06,-0.023 0.122,-0.045 0.182,-0.069 0.003,-0.002 0.006,-0.003 0.009,-0.004 0.086,-0.034 0.171,-0.068 0.256,-0.102 10e-4,-10e-4 0.003,-10e-4 0.004,-0.002 0,0 10e-4,0 10e-4,0 0.041,-0.017 0.082,-0.034 0.123,-0.051 0.008,-0.004 0.017,-0.007 0.025,-0.011 0.024,-0.009 0.047,-0.02 0.071,-0.03 0.032,-0.014 0.064,-0.027 0.097,-0.041 0.012,-0.005 0.024,-0.01 0.037,-0.016 0.149,-0.064 0.298,-0.133 0.446,-0.202 0.005,-0.002 0.009,-0.005 0.014,-0.007 0.152,-0.072 0.303,-0.146 0.454,-0.222 0.016,-0.008 0.033,-0.016 0.049,-0.024 0.003,-0.002 0.006,-0.003 0.009,-0.005 0.309,-0.157 0.614,-0.322 0.916,-0.494 10e-4,0 10e-4,-0.001 10e-4,-0.001 v 0 c 1.422,-0.81 2.772,-1.773 4.092,-2.74 0.696,-0.51 1.389,-1.025 2.071,-1.556 0.058,-0.045 0.116,-0.091 0.174,-0.136 0.028,-0.022 0.056,-0.044 0.084,-0.067 0.082,-0.065 0.164,-0.13 0.246,-0.195 0.064,-0.052 0.128,-0.103 0.191,-0.154 0.095,-0.077 0.19,-0.154 0.283,-0.231 0.029,-0.024 0.057,-0.046 0.085,-0.07 0.029,-0.023 0.056,-0.047 0.085,-0.071 0.083,-0.07 0.168,-0.14 0.251,-0.211 0.043,-0.036 0.087,-0.072 0.13,-0.109 0.068,-0.058 0.136,-0.117 0.204,-0.176 0.008,-0.008 0.017,-0.015 0.025,-0.022 0.741,0.293 1.502,0.545 2.258,0.79 0.227,0.073 0.454,0.145 0.681,0.218 0.01,0.003 0.019,0.006 0.028,0.009 0.023,0.821 0.105,1.635 0.278,2.421 0.236,1.076 0.64,2.095 1.288,2.996 0.419,0.582 1.086,1.146 1.778,0.955 0.03,-0.009 0.059,-0.018 0.088,-0.029 0.001,0.014 0.003,0.028 0.004,0.042 1.869,-0.987 4.138,-0.581 6.197,-0.104 2.614,0.606 5.215,1.288 7.751,2.169 0.362,0.126 0.737,0.258 1.12,0.232 0.453,-0.03 0.861,-0.276 1.226,-0.543 l 0.212,0.055 z" /></g></g></g></g></svg>