<?xml version="1.0" encoding="UTF-8" standalone="no"?>
<svg
   xmlns:dc="http://purl.org/dc/elements/1.1/"
   xmlns:cc="http://creativecommons.org/ns#"
   xmlns:rdf="http://www.w3.org/1999/02/22-rdf-syntax-ns#"
   xmlns:svg="http://www.w3.org/2000/svg"
   xmlns="http://www.w3.org/2000/svg"
   viewBox="0 0 1440 1440"
   height="1440"
   width="1440"
   xml:space="preserve"
   id="svg2"
   version="1.1"><metadata
     id="metadata8"><rdf:RDF><cc:Work
         rdf:about=""><dc:format>image/svg+xml</dc:format><dc:type
           rdf:resource="http://purl.org/dc/dcmitype/StillImage" /></cc:Work></rdf:RDF></metadata><defs
     id="defs6"><clipPath
       id="clipPath20"
       clipPathUnits="userSpaceOnUse"><path
         id="path18"
         d="M 0,1080 H 1080 V 0 H 0 Z" /></clipPath></defs><g
     transform="matrix(1.3333333,0,0,-1.3333333,0,1440)"
     id="g10"><path
       id="path12"
       style="fill:#ffffff;fill-opacity:1;fill-rule:nonzero;stroke:none"
       d="M 0,0 H 1080 V 1079 H 0 Z" /><g
       id="g14"><g
         clip-path="url(#clipPath20)"
         id="g16"><g
           transform="translate(425.6045,593.819)"
           id="g22"><path
             id="path24"
             style="fill:#6348e5;fill-opacity:1;fill-rule:nonzero;stroke:none"
             d="m 0,0 c -2.056,1.588 -5.421,2.384 -10.092,2.384 -2.058,0 -4.184,-0.165 -6.379,-0.493 -2.196,-0.327 -3.855,-0.584 -4.976,-0.77 v -44.578 -10.793 -1.401 c 0,-3.552 -0.795,-6.238 -2.382,-8.061 -1.592,-1.823 -4.206,-2.732 -7.851,-2.732 -1.496,0 -2.874,0.068 -4.135,0.207 -1.262,0.141 -2.782,0.398 -4.556,0.773 -0.655,-0.841 -1.261,-1.962 -1.822,-3.364 -0.561,-1.404 -0.842,-3.039 -0.842,-4.906 0,-4.676 1.752,-7.922 5.257,-9.743 3.504,-1.823 7.732,-2.735 12.686,-2.735 6.168,0 11.331,1.122 15.49,3.364 4.157,2.245 7.311,5.42 9.462,9.535 2.149,4.108 3.225,8.923 3.225,14.437 v 4.626 10.793 34.205 C 3.085,-4.673 2.055,-1.592 0,0" /></g><g
           transform="translate(457.2837,578.1172)"
           id="g26"><path
             id="path28"
             style="fill:#6348e5;fill-opacity:1;fill-rule:nonzero;stroke:none"
             d="M 0,0 C -2.242,0 -4.324,-0.139 -6.239,-0.419 -8.155,-0.7 -9.627,-0.98 -10.654,-1.26 v -30.139 -12.475 -14.439 c 0,-4.301 1.052,-7.245 3.154,-8.833 2.104,-1.588 5.444,-2.381 10.023,-2.381 2.243,0 4.322,0.138 6.238,0.421 1.914,0.278 3.386,0.561 4.416,0.839 v 24.393 12.475 20.187 c 0,4.39 -1.03,7.358 -3.084,8.899 C 8.036,-0.77 4.672,0 0,0" /></g><g
           transform="translate(458.545,609.3795)"
           id="g30"><path
             id="path32"
             style="fill:#6348e5;fill-opacity:1;fill-rule:nonzero;stroke:none"
             d="m 0,0 c -3.832,0 -6.963,-1.215 -9.391,-3.646 -2.432,-2.431 -3.646,-5.423 -3.646,-8.97 0,-3.46 1.214,-6.428 3.646,-8.904 2.428,-2.476 5.559,-3.712 9.391,-3.712 3.831,0 6.961,1.236 9.393,3.712 2.428,2.476 3.644,5.444 3.644,8.904 0,3.547 -1.216,6.539 -3.644,8.97 C 6.961,-1.215 3.831,0 0,0" /></g><g
           transform="translate(519.6622,530.317)"
           id="g34"><path
             id="path36"
             style="fill:#6348e5;fill-opacity:1;fill-rule:nonzero;stroke:none"
             d="m 0,0 c -3.458,0 -6.332,1.074 -8.621,3.225 -2.291,2.148 -3.434,6.166 -3.434,12.055 0,5.512 1.262,9.507 3.785,11.985 2.523,2.476 5.793,3.715 9.813,3.715 1.774,0 3.223,-0.163 4.345,-0.49 1.121,-0.328 2.149,-0.726 3.084,-1.192 V 2.621 C 8.334,2.228 7.698,1.833 7.009,1.472 5.139,0.492 2.804,0 0,0 m 25.793,43.035 c -2.431,1.588 -5.911,3.083 -10.443,4.487 -4.533,1.4 -9.462,2.101 -14.789,2.101 -7.289,0 -13.667,-1.286 -19.134,-3.853 -5.467,-2.572 -9.697,-6.402 -12.687,-11.495 -2.991,-5.097 -4.485,-11.379 -4.485,-18.853 0,-8.04 1.423,-14.51 4.275,-19.417 2.849,-4.906 6.658,-8.435 11.425,-10.583 4.766,-2.151 9.953,-3.225 15.56,-3.225 3.83,0 7.124,0.375 9.883,1.124 1.413,0.381 2.74,0.817 3.995,1.3 v -3.684 c 0,-3.736 -1.496,-6.45 -4.486,-8.131 -2.992,-1.682 -6.963,-2.523 -11.916,-2.523 -3.738,0 -7.312,0.516 -10.723,1.543 -3.412,1.027 -6.472,2.289 -9.182,3.783 -1.121,-0.841 -2.127,-2.148 -3.014,-3.925 -0.889,-1.776 -1.332,-3.735 -1.332,-5.888 0,-4.111 1.683,-7.288 5.047,-9.531 2.243,-1.493 5.303,-2.64 9.182,-3.434 3.877,-0.794 8.292,-1.192 13.247,-1.192 6.634,0 12.637,1.029 18.012,3.083 5.373,2.057 9.649,5.211 12.827,9.463 3.176,4.254 4.766,9.65 4.766,16.191 v 7.849 5.328 38.828 c 0,2.525 -0.539,4.626 -1.612,6.308 -1.075,1.682 -2.547,3.131 -4.416,4.346" /></g><g
           transform="translate(606.0104,562.8394)"
           id="g38"><path
             id="path40"
             style="fill:#16c60c;fill-opacity:1;fill-rule:nonzero;stroke:none"
             d="m 0,0 -7.429,2.384 c -2.337,0.744 -4.135,1.564 -5.397,2.452 -1.261,0.888 -1.892,2.033 -1.892,3.434 0,1.774 0.981,3.246 2.943,4.417 1.963,1.166 5.046,1.752 9.252,1.752 4.112,0 7.896,-0.492 11.355,-1.474 3.455,-0.98 6.214,-2.125 8.27,-3.435 1.588,1.216 2.943,2.709 4.066,4.488 1.121,1.773 1.682,3.83 1.682,6.169 0,3.269 -1.216,5.954 -3.646,8.058 -2.43,2.103 -5.747,3.667 -9.952,4.697 -4.205,1.027 -9.02,1.543 -14.439,1.543 -11.027,0 -19.602,-2.384 -25.722,-7.152 -6.122,-4.765 -9.182,-11.122 -9.182,-19.063 0,-5.42 1.167,-9.813 3.504,-13.176 2.336,-3.367 5.584,-6.099 9.742,-8.2 4.158,-2.104 8.948,-4.089 14.369,-5.959 l 5.888,-1.963 c 2.71,-0.935 4.812,-1.941 6.308,-3.012 1.494,-1.077 2.243,-2.549 2.243,-4.417 0,-1.87 -0.936,-3.554 -2.804,-5.048 -1.87,-1.493 -5.095,-2.242 -9.672,-2.242 -4.486,0 -8.621,0.749 -12.406,2.242 -3.784,1.494 -6.987,3.272 -9.602,5.328 -1.871,-1.029 -3.598,-2.501 -5.187,-4.414 -1.59,-1.917 -2.383,-4.23 -2.383,-6.939 0,-3.458 1.354,-6.402 4.066,-8.833 2.709,-2.431 6.354,-4.254 10.933,-5.465 4.578,-1.215 9.719,-1.823 15.42,-1.823 12.056,0 21.237,2.501 27.546,7.5 6.308,4.998 9.462,11.471 9.462,19.414 0,7.476 -2.338,13.433 -7.01,17.873 C 15.652,-6.426 8.878,-2.803 0,0" /></g><g
           transform="translate(741.7052,577.1373)"
           id="g42"><path
             id="path44"
             style="fill:#16c60c;fill-opacity:1;fill-rule:nonzero;stroke:none"
             d="m 0,0 c -2.152,1.402 -4.861,2.101 -8.131,2.101 -3.924,0 -7.57,-0.98 -10.934,-2.942 -0.841,-7.945 -1.752,-15.817 -2.733,-23.621 -0.982,-7.804 -1.987,-15.304 -3.014,-22.497 h -0.702 c -0.374,1.962 -1.05,4.857 -2.031,8.691 -0.983,3.83 -2.127,8.268 -3.435,13.316 -1.31,5.048 -2.712,10.277 -4.205,15.7 -0.655,2.148 -2.151,3.735 -4.486,4.767 -2.337,1.027 -5.141,1.541 -8.411,1.541 -2.617,0 -4.86,-0.281 -6.728,-0.841 -1.871,-0.561 -3.74,-1.355 -5.608,-2.382 -1.309,-5.608 -2.663,-11.17 -4.065,-16.681 -1.402,-5.517 -2.617,-10.398 -3.644,-14.652 -1.029,-4.251 -1.777,-7.405 -2.244,-9.459 h -0.56 c -0.189,0.932 -0.398,2.195 -0.63,3.783 -0.235,1.587 -0.561,3.806 -0.982,6.659 -0.421,2.85 -0.959,6.611 -1.612,11.285 -0.655,4.671 -1.45,10.557 -2.384,17.661 -0.468,3.553 -1.751,6.049 -3.854,7.5 -2.103,1.447 -4.79,2.172 -8.061,2.172 -2.617,0 -5.024,-0.49 -7.218,-1.47 -2.197,-0.982 -3.949,-2.127 -5.257,-3.434 0.561,-3.646 1.262,-7.736 2.103,-12.267 0.84,-4.533 1.773,-9.206 2.803,-14.016 1.027,-4.814 2.078,-9.441 3.154,-13.878 1.074,-4.441 2.124,-8.367 3.154,-11.776 1.028,-3.413 1.963,-6.051 2.804,-7.921 0.933,-1.962 2.825,-3.482 5.677,-4.556 2.85,-1.074 6.144,-1.611 9.882,-1.611 3.085,0 5.77,0.349 8.061,1.051 2.288,0.702 4.041,1.611 5.256,2.732 0.654,2.245 1.589,5.375 2.804,9.394 1.213,4.018 2.499,8.362 3.855,13.035 1.353,4.673 2.453,9.158 3.294,13.46 0.841,-4.113 1.845,-8.367 3.014,-12.758 1.167,-4.395 2.359,-8.435 3.575,-12.126 1.213,-3.693 2.194,-6.657 2.943,-8.899 1.402,-3.927 6.027,-5.889 13.878,-5.889 3.084,0 6.003,0.349 8.761,1.051 2.755,0.702 4.742,1.611 5.958,2.732 0.652,1.684 1.424,4.042 2.313,7.081 0.887,3.036 1.822,6.47 2.803,10.303 0.981,3.83 1.963,7.801 2.944,11.914 0.981,4.113 1.845,8.037 2.594,11.777 0.746,3.736 1.353,7.079 1.822,10.021 0.466,2.944 0.7,5.163 0.7,6.661 C 3.223,-3.835 2.148,-1.404 0,0" /></g><g
           transform="translate(795.8112,526.673)"
           id="g46"><path
             id="path48"
             style="fill:#16c60c;fill-opacity:1;fill-rule:nonzero;stroke:none"
             d="m 0,0 c -0.935,-0.561 -2.36,-1.006 -4.275,-1.333 -1.916,-0.328 -3.669,-0.49 -5.257,-0.49 -3.459,0 -5.912,0.584 -7.359,1.752 -1.45,1.169 -2.173,2.686 -2.173,4.556 0,1.87 0.841,3.269 2.524,4.207 1.681,0.933 3.83,1.493 6.448,1.682 L 0,11.212 Z m 13.808,47.03 c -6.122,4.155 -14.277,6.237 -24.461,6.237 -3.273,0 -6.753,-0.235 -10.444,-0.702 -3.692,-0.466 -6.892,-1.215 -9.602,-2.242 -4.766,-1.87 -7.149,-5.045 -7.149,-9.53 0,-1.871 0.42,-3.67 1.261,-5.399 0.842,-1.729 1.869,-3.013 3.085,-3.854 2.708,1.121 5.768,2.054 9.181,2.803 3.411,0.747 6.845,1.121 10.303,1.121 4.486,0 7.921,-0.584 10.303,-1.752 2.384,-1.168 3.575,-3.107 3.575,-5.818 v -0.98 l -18.364,-1.962 c -7.944,-0.841 -13.855,-2.994 -17.732,-6.447 -3.879,-3.46 -5.817,-8.414 -5.817,-14.861 0,-7.662 2.966,-13.386 8.902,-17.172 5.933,-3.785 13.806,-5.676 23.619,-5.676 5.514,0 10.419,0.468 14.719,1.401 4.297,0.933 7.941,2.29 10.934,4.066 1.868,1.121 3.48,2.452 4.836,3.995 1.353,1.54 2.033,3.526 2.033,5.957 v 31.401 c 0,8.781 -3.062,15.254 -9.182,19.414" /></g><g
           transform="translate(877.0432,530.9482)"
           id="g50"><path
             id="path52"
             style="fill:#16c60c;fill-opacity:1;fill-rule:nonzero;stroke:none"
             d="m 0,0 c -2.477,-3.039 -6.051,-4.556 -10.723,-4.556 -2.617,0 -4.955,0.512 -7.009,1.543 -0.297,0.149 -0.554,0.314 -0.841,0.466 v 30.792 c 1.027,0.56 2.288,1.053 3.785,1.474 1.494,0.42 3.129,0.629 4.905,0.629 2.991,0 5.49,-0.61 7.5,-1.82 C -0.375,27.312 1.144,25.465 2.173,22.99 3.2,20.512 3.715,17.263 3.715,13.245 3.715,7.45 2.476,3.036 0,0 m 23.341,33.644 c -3.179,5.276 -7.619,9.158 -13.318,11.634 -5.701,2.475 -12.336,3.714 -19.906,3.714 -5.514,0 -10.56,-0.584 -15.138,-1.752 -4.581,-1.169 -8.319,-2.688 -11.215,-4.556 -1.87,-1.215 -3.342,-2.662 -4.415,-4.346 -1.076,-1.682 -1.613,-3.785 -1.613,-6.308 v -39.81 -5.748 -22.707 c 0,-4.299 1.052,-7.243 3.154,-8.833 2.103,-1.588 5.444,-2.384 10.023,-2.384 2.244,0 4.321,0.142 6.239,0.422 1.913,0.28 3.386,0.561 4.415,0.841 v 24.776 c 0.809,-0.276 1.608,-0.56 2.453,-0.807 2.569,-0.744 5.537,-1.121 8.902,-1.121 6.728,0 12.731,1.404 18.012,4.207 5.279,2.803 9.462,6.914 12.547,12.334 3.083,5.42 4.625,12.102 4.625,20.045 0,8.32 -1.59,15.118 -4.765,20.399" /></g><g
           transform="translate(219.8221,550.4845)"
           id="g54"><path
             id="path56"
             style="fill:#6348e5;fill-opacity:1;fill-rule:nonzero;stroke:none"
             d="m 0,0 c 0.06,0.43 -0.197,0.905 -0.285,1.317 -0.149,0.695 -0.176,1.416 -0.283,2.119 -0.475,3.11 -1.516,6.134 -3.05,8.881 -0.862,1.542 -1.996,2.82 -2.981,4.266 1.718,-2.523 3.096,-5.277 4.085,-8.164 0.639,-1.864 1.12,-3.821 0.98,-5.786 C -1.59,1.845 -1.745,1.066 -1.851,0.281 -2.057,-1.248 -0.19,-1.369 0,0" /></g><g
           transform="translate(197.5992,553.4022)"
           id="g58"><path
             id="path60"
             style="fill:#6348e5;fill-opacity:1;fill-rule:nonzero;stroke:none"
             d="M 0,0 C -1.123,0.699 -2.201,1.491 -3.091,2.47 -3.707,3.148 -4.233,3.919 -4.591,4.765 -4.744,5.129 -4.802,5.569 -4.993,5.91 -5.09,6.082 -5.825,6.722 -5.786,6.897 -6.264,5.315 -5.497,3.567 -4.298,2.428 -3.099,1.287 -1.53,0.632 0,0" /></g><g
           transform="translate(208.0585,557.1295)"
           id="g62"><path
             id="path64"
             style="fill:#6348e5;fill-opacity:1;fill-rule:nonzero;stroke:none"
             d="M 0,0 C 0.918,-0.65 1.781,-1.38 2.574,-2.178 3.971,-3.585 5.157,-5.207 6.043,-6.982 6.779,-8.453 7.576,-10.281 7.518,-11.957 7.666,-9.48 7.057,-6.973 5.754,-4.858 4.415,-2.683 2.367,-0.955 0,0" /></g><g
           transform="translate(329.5568,526.5978)"
           id="g66"><path
             id="path68"
             style="fill:#6348e5;fill-opacity:1;fill-rule:nonzero;stroke:none"
             d="M 0,0 C 1.123,-0.699 2.201,-1.491 3.091,-2.47 3.707,-3.148 4.233,-3.919 4.591,-4.765 4.744,-5.129 4.802,-5.569 4.993,-5.91 5.09,-6.082 5.825,-6.722 5.786,-6.898 6.264,-5.315 5.497,-3.567 4.298,-2.428 3.099,-1.287 1.53,-0.632 0,0" /></g><g
           transform="translate(319.0976,522.8705)"
           id="g70"><path
             id="path72"
             style="fill:#6348e5;fill-opacity:1;fill-rule:nonzero;stroke:none"
             d="M 0,0 C -0.918,0.65 -1.781,1.38 -2.574,2.178 -3.971,3.585 -5.157,5.207 -6.043,6.982 -6.779,8.453 -7.576,10.281 -7.518,11.957 -7.666,9.48 -7.057,6.973 -5.754,4.857 -4.415,2.683 -2.367,0.955 0,0" /></g><g
           transform="translate(307.3341,529.5155)"
           id="g74"><path
             id="path76"
             style="fill:#6348e5;fill-opacity:1;fill-rule:nonzero;stroke:none"
             d="m 0,0 c -0.06,-0.43 0.197,-0.905 0.285,-1.317 0.149,-0.695 0.175,-1.416 0.283,-2.119 0.475,-3.11 1.516,-6.134 3.05,-8.881 0.862,-1.542 1.996,-2.82 2.981,-4.266 -1.718,2.523 -3.096,5.277 -4.085,8.164 -0.639,1.864 -1.12,3.821 -0.98,5.786 0.056,0.788 0.211,1.567 0.317,2.352 C 2.057,1.248 0.189,1.369 0,0" /></g><g
           transform="translate(321.3524,576.4299)"
           id="g78"><path
             id="path80"
             style="fill:#6348e5;fill-opacity:1;fill-rule:nonzero;stroke:none"
             d="m 0,0 c -0.023,-0.023 -0.023,-0.023 -0.046,-0.046 -2.275,-2.275 -3.777,-5.142 -4.209,-8.35 -0.751,-5.53 -3.55,-10.831 -8.374,-14.7 -8.146,-6.508 -20.024,-6.508 -28.148,0.023 -10.74,8.601 -11.377,24.302 -1.934,33.745 3.641,3.641 8.192,5.78 12.925,6.417 3.209,0.432 6.121,1.934 8.396,4.21 0.023,0.022 0.023,0.022 0.046,0.045 l -36.43,36.43 -36.43,-36.43 c -0.023,0.023 -0.023,0.023 -0.046,0.045 -1.115,1.116 -2.048,2.413 -2.753,3.801 -0.751,1.433 -1.229,2.958 -1.457,4.596 -0.318,2.366 -1.001,4.687 -2.093,6.872 -1.047,2.184 -2.503,4.232 -4.323,6.053 -1.639,1.638 -3.482,2.981 -5.439,3.981 -9.261,4.938 -21.207,2.959 -28.306,-5.915 -3.254,-4.074 -4.915,-9.103 -4.87,-14.108 -0.023,-0.615 0,-1.275 0.068,-1.889 0.137,-1.866 0.501,-3.686 1.115,-5.484 l 0.023,-0.023 c 0.41,-1.183 0.91,-2.366 1.547,-3.458 0.592,-1.138 1.275,-2.185 2.094,-3.186 2.184,-2.776 4.869,-4.869 7.805,-6.303 2.207,-1.069 4.528,-1.752 6.894,-2.071 0.41,-0.045 0.797,-0.114 1.184,-0.227 0.409,-0.092 0.819,-0.182 1.183,-0.319 0.774,-0.228 1.501,-0.546 2.184,-0.91 1.411,-0.683 2.685,-1.638 3.8,-2.753 0.023,-0.023 0.023,-0.023 0.046,-0.046 l -16.48,-16.48 c 0.116,-0.162 0.237,-0.321 0.343,-0.49 0.822,0.333 1.584,0.673 2.258,1.017 v 0 c 0.064,0.087 0.129,0.174 0.197,0.26 1.46,1.831 3.698,2.83 5.847,3.764 1.821,0.791 3.643,1.581 5.466,2.373 0.595,0.259 1.194,0.517 1.795,0.768 1.294,0.825 2.811,1.448 3.776,2.076 3.393,2.208 6.405,4.93 9.56,7.452 1.749,1.398 3.543,2.744 5.459,3.904 0.555,0.335 1.152,0.665 1.8,0.661 0.102,-10e-4 0.204,-0.013 0.305,-0.035 0.428,-0.094 0.823,-0.371 0.981,-0.75 v 0 c 0.001,-0.003 0.001,-0.005 0.002,-0.007 0.005,-0.012 0.01,-0.024 0.014,-0.036 0.003,-0.007 0.004,-0.013 0.007,-0.019 0.003,-0.009 0.006,-0.018 0.009,-0.028 0.004,-0.015 0.01,-0.029 0.013,-0.045 0,-0.004 0.001,-0.008 0.002,-0.013 0.002,-0.008 0.004,-0.016 0.006,-0.024 0,-10e-4 0,-0.002 0.001,-0.003 0,-0.002 0,-0.004 10e-4,-0.006 0.004,-0.026 0.009,-0.052 0.012,-0.078 0,-0.006 0.002,-0.012 0.003,-0.019 0.001,-0.017 0.002,-0.034 0.003,-0.051 0.013,-0.463 -0.298,-0.863 -0.593,-1.219 -0.02,-0.024 -0.04,-0.048 -0.06,-0.072 -0.059,-0.071 -0.117,-0.141 -0.176,-0.212 0.001,10e-4 0.001,10e-4 0.001,0.002 0,-10e-4 -0.001,-10e-4 -0.001,-0.002 -0.238,-0.287 -0.476,-0.573 -0.715,-0.86 0,0 -10e-4,-0.001 -10e-4,-0.001 0,0 10e-4,0 10e-4,0.001 -0.787,-0.946 -1.579,-1.888 -2.383,-2.819 -0.025,-0.029 -0.05,-0.058 -0.075,-0.087 -0.45,-0.52 -0.905,-1.037 -1.365,-1.548 -0.023,-0.026 -0.046,-0.053 -0.07,-0.079 -0.031,-0.034 -0.062,-0.068 -0.093,-0.102 -0.087,-0.097 -0.174,-0.193 -0.262,-0.288 -0.011,-0.013 -0.023,-0.027 -0.035,-0.04 -0.027,-0.03 -0.055,-0.06 -0.082,-0.09 -0.026,-0.028 -0.052,-0.055 -0.077,-0.083 -0.098,-0.106 -0.195,-0.212 -0.293,-0.317 -0.01,-0.011 -0.02,-0.022 -0.03,-0.033 -0.065,-0.069 -0.129,-0.138 -0.194,-0.207 -0.078,-0.083 -0.156,-0.167 -0.235,-0.25 -0.028,-0.03 -0.056,-0.06 -0.085,-0.09 -0.067,-0.072 -0.135,-0.143 -0.203,-0.213 -0.206,-0.216 -0.413,-0.43 -0.622,-0.642 -0.011,-0.012 -0.022,-0.024 -0.034,-0.035 -0.093,-0.095 -0.186,-0.189 -0.28,-0.283 -0.018,-0.018 -0.037,-0.036 -0.055,-0.055 -0.053,-0.053 -0.106,-0.106 -0.16,-0.159 -0.022,-0.022 -0.044,-0.045 -0.066,-0.066 -0.087,-0.087 -0.175,-0.174 -0.264,-0.26 -0.013,-0.013 -0.025,-0.025 -0.038,-0.038 -0.044,-0.042 -0.087,-0.084 -0.131,-0.127 -0.042,-0.04 -0.084,-0.081 -0.126,-0.121 -0.098,-0.095 -0.198,-0.191 -0.297,-0.285 -0.001,-0.064 10e-4,-0.128 0.005,-0.192 0.042,-0.798 0.39,-1.53 1.305,-1.78 0.371,-0.101 0.762,-0.074 1.146,-0.042 0.659,0.056 1.315,0.128 1.971,0.214 0.89,0.327 1.776,0.665 2.661,1.007 0.057,0.022 0.113,0.044 0.17,0.066 0.07,0.027 0.14,0.054 0.211,0.082 0.649,0.251 1.296,0.504 1.945,0.754 0.056,0.022 0.11,0.044 0.166,0.065 h 10e-4 c 0.051,0.019 0.103,0.04 0.155,0.059 0.505,0.195 1.01,0.388 1.518,0.578 2.585,0.967 5.209,1.862 7.911,2.449 1.684,0.366 4.027,0.865 5.043,-1.058 0.042,-0.079 0.077,-0.156 0.103,-0.231 0.006,-0.018 0.012,-0.035 0.017,-0.052 0.002,-0.004 0.003,-0.008 0.004,-0.012 0.002,-0.008 0.005,-0.016 0.007,-0.024 0.002,-0.005 0.003,-0.009 0.005,-0.014 0.002,-0.008 0.003,-0.016 0.005,-0.024 0.005,-0.02 0.01,-0.039 0.014,-0.059 10e-4,-0.005 0.003,-0.01 0.004,-0.016 0.003,-0.011 0.004,-0.023 0.006,-0.034 0.001,-10e-4 0.001,-0.002 0.001,-0.003 0.001,-0.006 0.001,-0.011 0.002,-0.017 0.007,-0.045 0.011,-0.088 0.013,-0.13 0,-0.001 0,-0.003 0,-0.003 0,-0.006 0,-0.013 0,-0.019 0,-0.011 0.001,-0.024 0.001,-0.035 0,-0.006 -0.001,-0.013 -0.001,-0.019 0,-0.003 0,-0.006 0,-0.009 0,-0.012 0,-0.024 -0.001,-0.036 l -10e-4,-0.003 c -0.001,-0.017 -0.003,-0.034 -0.005,-0.051 -10e-4,-0.012 -0.002,-0.024 -0.004,-0.036 -0.002,-0.01 -0.003,-0.018 -0.005,-0.027 -0.007,-0.038 -0.016,-0.074 -0.027,-0.111 -0.002,-0.006 -0.004,-0.013 -0.006,-0.019 0,-0.001 -10e-4,-0.003 -10e-4,-0.004 -0.004,-0.016 -0.01,-0.031 -0.015,-0.046 -0.003,-0.005 -0.003,-0.009 -0.005,-0.013 -0.007,-0.018 -0.015,-0.037 -0.022,-0.055 -0.001,0 -0.001,-0.002 -0.001,-0.003 -0.006,-0.014 -0.013,-0.027 -0.02,-0.041 -0.003,-0.006 -0.006,-0.012 -0.01,-0.019 -0.004,-0.007 -0.007,-0.015 -0.011,-0.022 -0.001,-10e-4 -0.001,-0.003 -0.002,-0.004 -0.002,-0.003 -0.004,-0.006 -0.006,-0.01 -0.009,-0.017 -0.019,-0.034 -0.029,-0.052 -0.007,-0.011 -0.014,-0.022 -0.022,-0.033 -0.005,-0.009 -0.011,-0.018 -0.017,-0.027 -0.004,-0.007 -0.008,-0.013 -0.013,-0.02 -0.007,-0.01 -0.014,-0.021 -0.022,-0.031 -0.004,-0.006 -0.009,-0.012 -0.014,-0.018 -0.018,-0.023 -0.037,-0.047 -0.056,-0.07 -0.006,-0.006 -0.011,-0.013 -0.016,-0.02 -0.013,-0.014 -0.026,-0.029 -0.04,-0.044 -0.007,-0.007 -0.013,-0.014 -0.02,-0.021 -0.003,-0.004 -0.007,-0.007 -0.011,-0.011 -0.003,-0.004 -0.006,-0.007 -0.01,-0.011 -0.008,-0.008 -0.016,-0.016 -0.024,-0.024 -0.033,-0.033 -0.068,-0.065 -0.104,-0.096 -0.002,-0.002 -0.003,-0.004 -0.005,-0.006 -0.003,-0.002 -0.006,-0.005 -0.009,-0.007 -0.012,-0.011 -0.024,-0.021 -0.036,-0.031 -10e-4,-0.001 -0.002,-0.002 -0.003,-0.003 -0.008,-0.007 -0.016,-0.013 -0.024,-0.02 -0.008,-0.007 -0.016,-0.013 -0.025,-0.02 -0.017,-0.013 -0.034,-0.026 -0.051,-0.039 -0.001,-0.001 -0.002,-0.002 -0.004,-0.003 -0.027,-0.021 -0.056,-0.042 -0.085,-0.063 -0.006,-0.004 -0.011,-0.008 -0.016,-0.011 -0.008,-0.006 -0.015,-0.011 -0.022,-0.015 -0.117,-0.081 -0.242,-0.158 -0.373,-0.231 -0.005,-0.003 -0.01,-0.006 -0.016,-0.009 -0.106,-0.059 -0.216,-0.116 -0.329,-0.171 -0.001,0 -0.002,0 -0.002,0 -10e-4,-0.001 -10e-4,-0.001 -0.002,-0.001 -0.039,-0.02 -0.079,-0.038 -0.119,-0.057 -0.01,-0.005 -0.019,-0.009 -0.029,-0.014 -0.011,-0.005 -0.022,-0.01 -0.034,-0.015 -0.056,-0.025 -0.113,-0.051 -0.169,-0.075 -0.009,-0.004 -0.018,-0.008 -0.026,-0.012 -0.009,-0.004 -0.018,-0.007 -0.027,-0.011 -0.062,-0.027 -0.124,-0.053 -0.187,-0.078 -0.006,-0.003 -0.012,-0.006 -0.019,-0.008 -0.007,-0.003 -0.015,-0.006 -0.022,-0.009 -0.053,-0.021 -0.105,-0.042 -0.157,-0.063 -0.018,-0.007 -0.035,-0.014 -0.053,-0.021 -0.051,-0.019 -0.102,-0.039 -0.153,-0.059 l -0.028,-0.01 c -0.114,-0.044 -0.226,-0.085 -0.335,-0.126 -0.102,-0.038 -0.201,-0.074 -0.296,-0.11 -0.046,-0.016 -0.092,-0.033 -0.135,-0.05 -0.044,-0.017 -0.087,-0.033 -0.13,-0.049 -0.036,-0.014 -0.073,-0.029 -0.108,-0.043 -0.059,-0.023 -0.116,-0.046 -0.17,-0.069 -0.009,-0.004 -0.018,-0.007 -0.027,-0.011 -0.016,-0.007 -0.031,-0.014 -0.046,-0.021 -0.01,-0.004 -0.019,-0.008 -0.029,-0.012 -0.023,-0.01 -0.046,-0.021 -0.067,-0.031 -0.783,-0.368 -1.564,-0.736 -2.347,-1.103 -1.694,-0.797 -3.388,-1.594 -5.082,-2.39 -0.038,-0.018 -0.075,-0.035 -0.113,-0.053 -0.123,-0.058 -0.246,-0.116 -0.37,-0.174 h -0.001 c -0.085,-0.04 -0.171,-0.08 -0.257,-0.12 -0.007,-0.004 -0.014,-0.007 -0.021,-0.01 -0.495,-0.232 -0.992,-0.463 -1.49,-0.691 -0.062,-0.029 -0.124,-0.058 -0.187,-0.086 -0.136,-0.063 -0.272,-0.124 -0.409,-0.186 -0.085,-0.039 -0.17,-0.077 -0.255,-0.115 -0.043,-0.019 -0.087,-0.039 -0.13,-0.058 -0.006,-0.002 -0.012,-0.005 -0.018,-0.008 -0.007,-0.002 -0.013,-0.005 -0.019,-0.008 -0.031,-0.014 -0.062,-0.028 -0.093,-0.042 -0.102,-0.044 -0.203,-0.089 -0.305,-0.134 -0.123,-0.054 -0.246,-0.107 -0.369,-0.16 -0.024,-0.011 -0.049,-0.022 -0.073,-0.032 -0.097,-0.042 -0.194,-0.084 -0.291,-0.125 -0.129,-0.054 -0.259,-0.109 -0.388,-0.163 -0.048,-0.02 -0.095,-0.04 -0.143,-0.06 -10e-4,0 0,0 -10e-4,0 -0.169,-0.071 -0.339,-0.141 -0.51,-0.209 -0.019,-0.008 -0.039,-0.016 -0.059,-0.024 -0.047,-0.019 -0.094,-0.037 -0.14,-0.056 -0.052,-0.02 -0.103,-0.041 -0.155,-0.062 -0.02,-0.007 -0.039,-0.015 -0.059,-0.023 -0.087,-0.035 -0.174,-0.069 -0.261,-0.102 -0.14,-0.055 -0.28,-0.108 -0.421,-0.161 -0.003,-0.002 -0.006,-0.003 -0.01,-0.004 -0.006,-0.002 -0.013,-0.005 -0.02,-0.008 0,0 0,10e-4 0,10e-4 0,0 0,0 0,0 l -0.001,-10e-4 c -0.101,-0.038 -0.201,-0.076 -0.302,-0.113 0.116,-0.247 0.223,-0.499 0.322,-0.754 5.581,0.138 11.148,0.904 16.558,2.285 2.111,0.539 5.021,1.213 6.686,-0.751 1.719,-2.028 -1.012,-3.535 -2.707,-3.886 -0.627,-0.129 -1.255,-0.259 -1.883,-0.39 v 0.001 c -1.372,-0.284 -2.744,-0.568 -4.115,-0.851 -1.553,-0.322 -3.106,-0.643 -4.658,-0.964 -0.608,-0.126 -1.216,-0.252 -1.824,-0.377 -0.261,-0.054 -0.523,-0.109 -0.784,-0.162 -0.455,-0.094 -0.91,-0.187 -1.364,-0.277 -0.716,-0.143 -1.432,-0.281 -2.15,-0.411 -0.079,-0.014 -0.158,-0.029 -0.237,-0.043 -0.014,-0.002 -0.027,-0.005 -0.041,-0.007 -0.078,-0.014 -0.156,-0.028 -0.234,-0.042 -0.004,0 -0.008,-0.001 -0.012,-0.002 -0.011,-0.002 -0.022,-0.003 -0.032,-0.005 -0.274,-0.048 -0.548,-0.094 -0.822,-0.138 -0.033,-0.006 -0.066,-0.012 -0.1,-0.017 -0.108,-0.017 -0.217,-0.034 -0.326,-0.051 -0.05,-0.007 -0.1,-0.016 -0.15,-0.024 -0.015,-0.002 -0.03,-0.004 -0.044,-0.007 v 10e-4 0 c 0,0 0,0 0,0 -0.125,-0.019 -0.25,-0.04 -0.376,-0.058 0.045,-0.303 0.093,-0.632 0.138,-0.978 0.832,-0.178 1.722,-0.253 2.538,-0.394 2.27,-0.393 4.542,-0.77 6.823,-1.091 2.471,-0.347 4.953,-0.629 7.444,-0.794 0.896,-0.06 1.824,-0.111 2.626,-0.516 0.712,-0.358 1.302,-1.078 1.323,-1.855 l -0.001,-10e-4 c 0.001,-0.028 0.001,-0.057 0,-0.085 0,-0.012 -0.001,-0.025 -0.002,-0.037 -0.001,-0.017 -0.002,-0.033 -0.003,-0.049 -0.001,-0.013 -0.002,-0.027 -0.004,-0.041 -0.001,-0.008 -0.001,-0.015 -0.002,-0.023 -0.002,-0.018 -0.005,-0.035 -0.008,-0.052 0,-0.004 0,-0.007 -10e-4,-0.011 -0.074,-0.444 -0.311,-0.793 -0.643,-1.064 -0.493,-0.403 -1.198,-0.634 -1.891,-0.751 -0.195,-0.033 -0.39,-0.058 -0.579,-0.074 -4.411,-0.385 -8.855,0.046 -13.257,0.057 -0.001,0 -0.003,0 -0.005,0 -0.154,0 -0.307,-10e-4 -0.461,-0.002 -0.056,0 -0.112,0 -0.168,0 -2.094,-0.016 -4.179,-0.141 -6.243,-0.509 -0.474,-0.257 -0.988,-0.479 -1.522,-0.675 -1.858,-0.681 -3.971,-1.044 -5.572,-1.436 -0.054,-0.013 -0.108,-0.026 -0.161,-0.039 -0.002,0 -0.003,0 -0.004,0 -0.159,-0.04 -0.319,-0.078 -0.478,-0.116 0.209,-1.057 0.623,-2.057 1.597,-2.887 1.52,-1.296 3.581,-1.692 5.513,-2.205 1.93,-0.512 3.974,-1.306 4.993,-3.024 0.374,-0.631 0.583,-1.412 0.339,-2.103 -0.025,-0.069 -0.053,-0.136 -0.085,-0.199 -0.002,-0.005 -0.005,-0.009 -0.007,-0.013 -0.095,-0.188 -0.221,-0.353 -0.37,-0.497 -0.004,-0.004 -0.007,-0.007 -0.01,-0.011 -0.008,-0.007 -0.016,-0.014 -0.023,-0.021 -0.03,-0.027 -0.061,-0.054 -0.093,-0.081 -0.004,-0.003 -0.009,-0.008 -0.013,-0.011 -0.027,-0.022 -0.054,-0.043 -0.082,-0.063 -0.004,-0.003 -0.008,-0.005 -0.011,-0.008 -0.039,-0.028 -0.079,-0.055 -0.119,-0.081 -0.015,-0.009 -0.029,-0.019 -0.044,-0.028 -0.004,-0.003 -0.008,-0.005 -0.012,-0.007 -0.057,-0.034 -0.116,-0.067 -0.176,-0.098 -0.01,-0.004 -0.02,-0.009 -0.029,-0.014 -0.057,-0.028 -0.116,-0.054 -0.175,-0.079 -0.012,-0.004 -0.023,-0.009 -0.034,-0.013 -0.061,-0.024 -0.122,-0.046 -0.185,-0.067 -0.008,-0.002 -0.017,-0.005 -0.025,-0.008 -0.107,-0.034 -0.215,-0.062 -0.325,-0.086 -0.017,-0.004 -0.033,-0.007 -0.049,-0.011 -0.004,-0.001 -0.009,-0.001 -0.013,-0.002 -0.318,-0.063 -0.646,-0.083 -0.961,-0.064 -0.018,10e-4 -0.036,0.003 -0.054,0.004 -0.039,0.003 -0.078,0.005 -0.117,0.008 -0.006,10e-4 -0.011,0.002 -0.017,0.002 -0.635,0.06 -1.258,0.221 -1.885,0.358 -0.086,0.019 -0.172,0.037 -0.259,0.055 -0.035,0.007 -0.071,0.014 -0.106,0.021 -0.088,0.017 -0.176,0.033 -0.264,0.048 0,0 0,0 0,0 -0.105,0.017 -0.21,0.032 -0.315,0.046 -0.029,0.004 -0.057,0.007 -0.086,0.01 -0.027,0.003 -0.055,0.007 -0.083,0.009 -0.064,0.007 -0.127,0.012 -0.191,0.016 -0.071,0.005 -0.141,0.008 -0.211,0.01 -0.011,0 -0.022,0.001 -0.034,0.001 -0.023,0 -0.047,0 -0.071,0 -0.044,10e-4 -0.088,10e-4 -0.132,10e-4 -0.033,0 -0.065,-10e-4 -0.098,-10e-4 -0.05,-0.001 -0.1,-0.002 -0.15,-0.004 -0.019,-10e-4 -0.037,-0.002 -0.055,-0.002 -0.014,-10e-4 -0.028,-0.002 -0.042,-0.002 -0.045,-0.002 -0.09,-0.005 -0.136,-0.007 -0.016,-10e-4 -0.033,-0.002 -0.049,-0.003 -0.328,-0.02 -0.657,-0.052 -0.985,-0.077 -0.003,-0.001 -0.007,-0.001 -0.01,-0.001 -0.058,-0.005 -0.117,-0.009 -0.176,-0.013 -0.033,-0.002 -0.066,-0.004 -0.099,-0.006 -0.046,-0.003 -0.092,-0.006 -0.138,-0.008 -0.043,-0.002 -0.086,-0.004 -0.128,-0.006 -0.04,-10e-4 -0.079,-0.002 -0.119,-0.003 -0.049,-0.002 -0.098,-0.003 -0.148,-0.003 -0.034,0 -0.068,0 -0.102,0 -0.056,0 -0.112,0.002 -0.168,0.003 -0.018,10e-4 -0.036,10e-4 -0.054,0.002 -0.019,0 -0.037,10e-4 -0.056,0.002 -0.017,10e-4 -0.034,0.002 -0.051,0.003 -0.002,0 -0.005,0 -0.008,0 -0.048,0.003 -0.096,0.007 -0.143,0.012 -0.013,0 -0.025,0.002 -0.038,0.003 -0.019,0.002 -0.038,0.004 -0.057,0.006 -0.003,0 -0.006,0 -0.008,10e-4 -0.032,0.003 -0.064,0.008 -0.095,0.012 -0.029,0.003 -0.059,0.008 -0.089,0.013 -0.024,0.004 -0.049,0.008 -0.074,0.012 -0.007,10e-4 -0.014,0.002 -0.02,0.004 -0.021,0.003 -0.041,0.007 -0.06,0.011 -0.026,0.005 -0.05,0.01 -0.076,0.016 -0.013,0.002 -0.026,0.004 -0.039,0.007 -0.122,0.028 -0.243,0.062 -0.362,0.1 -0.002,0.001 -0.005,0.002 -0.008,0.003 -0.006,0.002 -0.012,0.004 -0.017,0.006 -0.486,0.16 -0.947,0.397 -1.409,0.627 -0.062,0.03 -0.124,0.061 -0.187,0.091 -0.061,0.03 -0.122,0.06 -0.184,0.089 -0.026,0.012 -0.052,0.024 -0.078,0.036 -0.049,0.022 -0.097,0.045 -0.146,0.066 -0.015,0.007 -0.029,0.013 -0.044,0.019 -0.397,0.173 -0.803,0.311 -1.216,0.427 -1.181,0.329 -2.418,0.467 -3.649,0.639 -0.751,0.106 -1.5,0.225 -2.232,0.41 -0.026,0.006 -0.052,0.013 -0.078,0.02 -0.056,0.015 -0.112,0.029 -0.168,0.044 -0.005,0.002 -0.011,0.003 -0.016,0.005 -0.146,0.04 -0.291,0.083 -0.435,0.128 -0.023,0.008 -0.046,0.014 -0.069,0.021 -0.009,0.003 -0.017,0.006 -0.025,0.009 -0.044,0.014 -0.087,0.028 -0.13,0.042 -0.031,0.01 -0.063,0.021 -0.094,0.031 -0.007,0.003 -0.014,0.006 -0.021,0.008 -0.123,0.042 -0.246,0.086 -0.367,0.131 -0.005,10e-4 -0.009,0.003 -0.013,0.004 -0.059,0.022 -0.119,0.044 -0.177,0.067 -0.003,0.002 -0.006,0.003 -0.009,0.004 -0.083,0.032 -0.165,0.065 -0.248,0.099 -10e-4,0 -0.003,10e-4 -0.004,0.002 0,-0.001 0,0 -0.001,0 -0.04,0.016 -0.079,0.033 -0.119,0.049 -0.008,0.004 -0.016,0.007 -0.024,0.011 -0.023,0.009 -0.046,0.019 -0.069,0.029 -0.031,0.013 -0.062,0.026 -0.094,0.04 -0.011,0.004 -0.023,0.01 -0.035,0.015 -0.146,0.062 -0.29,0.129 -0.434,0.196 -0.004,0.002 -0.008,0.004 -0.012,0.006 -0.148,0.07 -0.294,0.142 -0.44,0.215 -0.016,0.008 -0.032,0.016 -0.049,0.024 -0.002,0.002 -0.005,0.003 -0.008,0.005 -0.299,0.152 -0.595,0.312 -0.888,0.479 0,0 0,0 0,0 h -0.001 c -1.377,0.785 -2.686,1.718 -3.965,2.656 -0.674,0.494 -1.346,0.993 -2.006,1.508 -0.057,0.044 -0.113,0.088 -0.17,0.131 -0.027,0.022 -0.054,0.043 -0.081,0.065 -0.08,0.063 -0.159,0.126 -0.238,0.19 -0.062,0.05 -0.124,0.099 -0.186,0.149 -0.092,0.074 -0.183,0.149 -0.274,0.224 -0.028,0.023 -0.055,0.045 -0.082,0.067 -0.028,0.023 -0.055,0.046 -0.082,0.069 -0.081,0.068 -0.163,0.136 -0.244,0.204 -0.042,0.036 -0.084,0.07 -0.126,0.106 -0.066,0.057 -0.131,0.114 -0.197,0.171 -0.008,0.007 -0.017,0.014 -0.025,0.021 -0.718,-0.283 -1.455,-0.528 -2.188,-0.765 -0.22,-0.071 -0.44,-0.141 -0.66,-0.211 -0.009,-0.003 -0.018,-0.006 -0.027,-0.009 -0.022,-0.796 -0.102,-1.585 -0.269,-2.347 -0.229,-1.042 -0.621,-2.03 -1.249,-2.903 -0.406,-0.564 -1.052,-1.11 -1.722,-0.925 -0.029,0.008 -0.058,0.017 -0.086,0.028 -0.001,-0.014 -0.003,-0.027 -0.004,-0.041 -1.811,0.956 -4.01,0.563 -6.005,0.101 -2.534,-0.587 -5.054,-1.248 -7.511,-2.102 -0.352,-0.122 -0.715,-0.251 -1.086,-0.226 -0.439,0.03 -0.834,0.268 -1.188,0.527 l -0.083,-0.175 30.953,-30.953 c 0.023,0.023 0.045,0.045 0.045,0.045 l 0.296,0.296 c 2.093,2.23 3.481,5.029 3.914,8.055 0.751,5.53 3.527,10.854 8.374,14.7 8.168,6.53 20.001,6.53 28.147,-0.023 10.718,-8.579 11.355,-24.279 1.911,-33.722 -3.64,-3.641 -8.191,-5.78 -12.901,-6.44 -3.072,-0.432 -5.848,-1.797 -8.101,-3.914 l -0.296,-0.296 c -0.022,-0.022 -0.022,-0.022 -0.045,-0.045 l 36.43,-36.43 36.43,36.43 0.045,-0.045 c 0.023,-0.023 0.046,-0.046 0.046,-0.046 0.842,-0.842 1.57,-1.752 2.162,-2.753 0.227,-0.319 0.409,-0.683 0.591,-1.047 0.728,-1.411 1.183,-2.958 1.411,-4.551 0.341,-2.389 1.024,-4.71 2.139,-6.917 0.523,-1.115 1.16,-2.162 1.889,-3.163 0.705,-1.024 1.524,-1.98 2.434,-2.89 1.092,-1.092 2.253,-2.025 3.482,-2.844 9.466,-6.235 22.641,-4.619 30.218,4.824 5.711,7.122 6.417,17.111 2.162,24.916 -0.296,0.569 -0.638,1.138 -0.979,1.661 -0.341,0.523 -0.705,1.024 -1.092,1.502 -1.388,1.752 -2.958,3.231 -4.665,4.437 -3.049,2.23 -6.553,3.55 -10.126,4.028 -1.979,0.25 -3.868,0.955 -5.552,2.002 -0.978,0.569 -1.911,1.32 -2.73,2.139 0,0 -0.023,0.023 -0.046,0.045 L 0,-72.86 16.48,-56.38 c -0.116,0.162 -0.237,0.321 -0.343,0.49 -0.822,-0.333 -1.584,-0.673 -2.258,-1.017 h -10e-4 c -0.063,-0.087 -0.128,-0.174 -0.197,-0.26 -1.46,-1.832 -3.698,-2.83 -5.846,-3.763 -1.822,-0.792 -3.643,-1.582 -5.466,-2.374 -0.596,-0.259 -1.194,-0.517 -1.796,-0.768 -1.293,-0.825 -2.811,-1.448 -3.775,-2.076 -3.393,-2.208 -6.406,-4.93 -9.561,-7.452 -1.748,-1.398 -3.543,-2.744 -5.459,-3.904 -0.554,-0.334 -1.152,-0.665 -1.799,-0.661 -0.102,0 -0.205,0.013 -0.306,0.035 -0.427,0.094 -0.823,0.371 -0.98,0.751 l -0.001,-10e-4 c -0.001,0.003 -0.001,0.005 -0.002,0.007 -0.005,0.012 -0.01,0.024 -0.014,0.036 -0.002,0.007 -0.004,0.013 -0.006,0.019 -0.003,0.009 -0.006,0.019 -0.009,0.028 -0.005,0.015 -0.01,0.03 -0.013,0.045 -0.001,0.004 -0.002,0.009 -0.003,0.013 -0.002,0.008 -0.004,0.016 -0.005,0.024 -0.001,0.001 -0.001,0.002 -0.001,0.003 -10e-4,0.002 -10e-4,0.004 -10e-4,0.006 -0.005,0.026 -0.009,0.052 -0.012,0.078 -0.001,0.006 -0.003,0.013 -0.003,0.019 -0.002,0.017 -0.002,0.034 -0.003,0.051 -0.014,0.463 0.297,0.864 0.592,1.219 0.02,0.024 0.041,0.048 0.061,0.072 0.058,0.071 0.117,0.141 0.175,0.212 0,-0.001 0,-0.001 -0.001,-0.002 0.001,10e-4 0.001,10e-4 0.002,0.002 0.237,0.287 0.476,0.574 0.714,0.86 0.001,0.001 0.001,0.001 0.002,0.001 -10e-4,0 -10e-4,0 -0.002,-0.001 0.788,0.946 1.579,1.888 2.384,2.819 0.025,0.029 0.049,0.058 0.075,0.087 0.45,0.52 0.904,1.037 1.364,1.548 0.024,0.026 0.047,0.053 0.071,0.079 0.03,0.034 0.061,0.068 0.092,0.102 0.087,0.097 0.174,0.193 0.262,0.289 0.012,0.013 0.024,0.026 0.035,0.039 0.028,0.03 0.055,0.06 0.083,0.09 0.025,0.028 0.051,0.055 0.077,0.083 0.097,0.106 0.195,0.212 0.293,0.317 0.009,0.011 0.019,0.022 0.029,0.033 0.065,0.069 0.129,0.138 0.194,0.207 0.078,0.084 0.156,0.167 0.235,0.25 0.028,0.03 0.057,0.06 0.085,0.09 0.068,0.072 0.136,0.142 0.204,0.213 0.205,0.216 0.412,0.43 0.621,0.642 0.012,0.012 0.023,0.024 0.034,0.036 0.093,0.094 0.186,0.188 0.28,0.282 0.019,0.018 0.037,0.037 0.055,0.055 0.053,0.053 0.107,0.106 0.16,0.159 0.023,0.022 0.044,0.045 0.066,0.067 0.088,0.086 0.176,0.173 0.264,0.259 0.013,0.013 0.026,0.025 0.039,0.038 0.043,0.042 0.087,0.085 0.131,0.127 0.041,0.04 0.083,0.081 0.125,0.121 0.098,0.095 0.198,0.191 0.297,0.285 10e-4,0.065 -10e-4,0.128 -0.004,0.192 -0.043,0.798 -0.39,1.529 -1.305,1.78 -0.372,0.101 -0.763,0.074 -1.146,0.042 -0.659,-0.056 -1.316,-0.128 -1.971,-0.214 -0.891,-0.327 -1.777,-0.665 -2.661,-1.007 -0.057,-0.022 -0.113,-0.044 -0.17,-0.066 -0.07,-0.027 -0.141,-0.054 -0.211,-0.082 -0.649,-0.251 -1.297,-0.504 -1.945,-0.754 -0.056,-0.022 -0.11,-0.043 -0.166,-0.065 h -10e-4 c -0.052,-0.019 -0.103,-0.04 -0.155,-0.059 -0.505,-0.195 -1.011,-0.387 -1.518,-0.578 -2.586,-0.967 -5.209,-1.862 -7.912,-2.449 -1.684,-0.366 -4.027,-0.864 -5.043,1.058 -0.042,0.079 -0.076,0.156 -0.103,0.232 -0.006,0.017 -0.012,0.034 -0.017,0.051 -10e-4,0.004 -0.002,0.008 -0.004,0.013 -0.002,0.007 -0.005,0.015 -0.007,0.023 -10e-4,0.005 -0.003,0.01 -0.004,0.014 -0.003,0.008 -0.004,0.016 -0.006,0.024 -0.005,0.02 -0.01,0.04 -0.014,0.059 -10e-4,0.005 -0.003,0.01 -0.003,0.016 -0.003,0.011 -0.005,0.023 -0.007,0.034 0,0.001 0,0.002 0,0.003 -10e-4,0.006 -0.002,0.011 -0.003,0.017 -0.007,0.045 -0.011,0.088 -0.013,0.131 0,0.001 10e-4,0.002 0,0.002 0,0.007 0,0.013 0,0.019 0,0.012 0,0.024 0,0.035 0,0.006 0,0.013 0,0.019 0,0.003 0,0.006 0,0.009 10e-4,0.012 10e-4,0.024 0.002,0.036 v 0.003 c 10e-4,0.017 0.003,0.034 0.005,0.051 0.002,0.013 0.003,0.024 0.005,0.036 0.002,0.01 0.003,0.018 0.005,0.028 0.007,0.037 0.016,0.073 0.027,0.11 0.002,0.006 0.003,0.013 0.005,0.019 10e-4,0.002 10e-4,0.003 10e-4,0.004 0.005,0.016 0.01,0.031 0.016,0.046 0.002,0.005 0.003,0.009 0.005,0.013 0.006,0.019 0.014,0.037 0.021,0.055 10e-4,0 0.002,0.002 0.002,0.003 0.005,0.014 0.012,0.027 0.019,0.041 0.004,0.006 0.007,0.012 0.01,0.019 0.004,0.008 0.008,0.015 0.012,0.023 0.001,0 0.001,0.002 0.001,0.003 0.002,0.003 0.004,0.007 0.006,0.01 0.01,0.017 0.02,0.035 0.03,0.052 0.006,0.011 0.014,0.022 0.021,0.033 0.006,0.009 0.011,0.018 0.017,0.027 0.005,0.007 0.009,0.014 0.013,0.02 0.008,0.01 0.015,0.021 0.022,0.031 0.005,0.006 0.01,0.012 0.014,0.018 0.018,0.024 0.037,0.047 0.057,0.07 0.005,0.007 0.01,0.013 0.016,0.02 0.012,0.014 0.025,0.029 0.039,0.044 0.007,0.007 0.014,0.014 0.02,0.021 0.004,0.004 0.007,0.007 0.011,0.011 0.003,0.004 0.007,0.007 0.01,0.011 0.008,0.008 0.017,0.016 0.025,0.024 0.033,0.033 0.067,0.065 0.103,0.097 0.002,0.001 0.004,0.003 0.006,0.005 0.003,0.002 0.006,0.005 0.009,0.007 0.012,0.011 0.024,0.021 0.036,0.031 10e-4,10e-4 0.002,0.002 0.003,0.003 0.007,0.007 0.016,0.013 0.023,0.02 0.008,0.007 0.017,0.013 0.025,0.02 0.017,0.013 0.034,0.026 0.051,0.039 0.001,0.001 0.003,0.002 0.004,0.003 0.028,0.021 0.056,0.042 0.085,0.063 0.006,0.004 0.011,0.008 0.016,0.012 0.008,0.005 0.015,0.01 0.023,0.015 0.116,0.08 0.241,0.157 0.372,0.231 0.006,0.002 0.011,0.005 0.016,0.008 0.106,0.059 0.217,0.116 0.33,0.171 0,0 10e-4,0 10e-4,0.001 10e-4,0 10e-4,0 0.002,10e-4 0.039,0.019 0.079,0.038 0.119,0.056 0.01,0.005 0.019,0.009 0.029,0.014 0.011,0.005 0.023,0.01 0.034,0.015 0.056,0.026 0.113,0.051 0.17,0.075 0.009,0.004 0.017,0.009 0.026,0.012 0.008,0.004 0.017,0.007 0.026,0.011 0.062,0.027 0.125,0.053 0.187,0.078 0.007,0.003 0.013,0.006 0.019,0.008 0.007,0.003 0.015,0.006 0.022,0.009 0.053,0.021 0.106,0.042 0.158,0.063 0.017,0.007 0.035,0.014 0.052,0.021 0.051,0.02 0.102,0.039 0.153,0.059 0.01,0.003 0.019,0.007 0.028,0.01 0.114,0.044 0.227,0.086 0.336,0.126 0.101,0.038 0.2,0.074 0.295,0.11 0.047,0.016 0.092,0.034 0.135,0.05 0.044,0.017 0.088,0.033 0.13,0.05 0.037,0.014 0.073,0.028 0.108,0.042 0.06,0.023 0.116,0.046 0.171,0.069 0.008,0.004 0.017,0.008 0.026,0.012 0.016,0.006 0.031,0.013 0.047,0.02 0.01,0.004 0.019,0.008 0.028,0.012 0.023,0.011 0.046,0.021 0.068,0.031 0.782,0.368 1.564,0.736 2.346,1.103 1.694,0.797 3.389,1.594 5.083,2.39 0.037,0.018 0.075,0.035 0.112,0.053 0.123,0.058 0.247,0.116 0.37,0.174 h 10e-4 c 0.086,0.04 0.171,0.081 0.257,0.121 0.007,0.003 0.014,0.006 0.021,0.01 0.496,0.232 0.992,0.462 1.49,0.69 0.062,0.029 0.125,0.058 0.187,0.087 0.137,0.062 0.273,0.123 0.41,0.185 0.084,0.039 0.169,0.077 0.254,0.115 0.044,0.02 0.087,0.039 0.131,0.058 0.005,0.003 0.012,0.005 0.018,0.008 0.006,0.002 0.012,0.005 0.018,0.008 0.031,0.014 0.062,0.028 0.094,0.042 0.101,0.044 0.203,0.089 0.304,0.134 0.123,0.054 0.246,0.107 0.37,0.161 0.024,0.01 0.048,0.021 0.072,0.031 0.098,0.042 0.195,0.084 0.291,0.125 0.13,0.054 0.259,0.109 0.389,0.163 0.047,0.02 0.095,0.04 0.143,0.06 0,0 0,0 0,0 0.17,0.071 0.34,0.141 0.51,0.21 0.019,0.007 0.04,0.015 0.06,0.023 0.046,0.019 0.093,0.038 0.139,0.056 0.052,0.021 0.104,0.041 0.155,0.062 0.02,0.007 0.04,0.016 0.06,0.023 0.087,0.035 0.174,0.069 0.26,0.102 0.14,0.055 0.281,0.108 0.421,0.161 0.003,0.002 0.007,0.003 0.01,0.004 0.007,0.002 0.014,0.005 0.021,0.008 0,0 -10e-4,-0.001 0,-0.001 0,0 0,0 0,0 v 0.001 c 0.101,0.038 0.202,0.076 0.303,0.113 -0.116,0.247 -0.223,0.499 -0.322,0.754 -5.582,-0.138 -11.149,-0.904 -16.558,-2.285 -2.112,-0.539 -5.022,-1.213 -6.687,0.751 -1.718,2.028 1.012,3.535 2.707,3.886 0.628,0.129 1.256,0.259 1.883,0.39 v -10e-4 c 1.372,0.284 2.744,0.568 4.116,0.851 1.552,0.322 3.105,0.643 4.658,0.964 0.607,0.126 1.215,0.252 1.823,0.377 0.262,0.054 0.523,0.109 0.785,0.162 0.454,0.094 0.909,0.187 1.364,0.277 0.715,0.143 1.431,0.282 2.149,0.411 0.079,0.014 0.158,0.029 0.238,0.043 0.013,0.003 0.027,0.005 0.04,0.008 0.078,0.013 0.156,0.027 0.234,0.041 0.005,0 0.009,10e-4 0.013,0.002 0.01,0.002 0.021,0.004 0.031,0.005 0.274,0.048 0.548,0.094 0.822,0.138 0.033,0.006 0.067,0.012 0.1,0.017 0.109,0.017 0.218,0.034 0.326,0.051 0.051,0.008 0.101,0.016 0.151,0.024 0.014,0.002 0.029,0.004 0.043,0.007 v -10e-4 10e-4 c 0,-10e-4 0,-10e-4 0,-10e-4 0.125,0.019 0.251,0.04 0.376,0.058 -0.044,0.303 -0.093,0.632 -0.138,0.978 -0.832,0.178 -1.721,0.253 -2.538,0.395 -2.269,0.392 -4.541,0.769 -6.822,1.09 -2.471,0.347 -4.953,0.629 -7.445,0.794 -0.896,0.06 -1.823,0.111 -2.626,0.516 -0.712,0.358 -1.302,1.078 -1.322,1.855 v 10e-4 c -10e-4,0.029 -10e-4,0.057 0,0.085 0,0.012 0.002,0.025 0.002,0.037 10e-4,0.017 0.002,0.033 0.004,0.049 0,0.014 10e-4,0.028 0.004,0.041 0,0.008 0.001,0.015 0.002,0.023 0.002,0.018 0.004,0.035 0.007,0.052 0.001,0.004 0.001,0.007 0.001,0.011 0.074,0.445 0.311,0.793 0.643,1.064 0.494,0.403 1.198,0.634 1.891,0.751 0.196,0.033 0.39,0.058 0.579,0.075 4.411,0.385 8.856,-0.047 13.257,-0.058 0.002,0 0.004,0 0.005,0 0.154,0 0.308,10e-4 0.462,0.002 0.056,0 0.111,0 0.167,0 2.095,0.016 4.179,0.141 6.244,0.509 0.474,0.257 0.987,0.479 1.522,0.676 1.857,0.681 3.97,1.043 5.572,1.435 0.053,0.013 0.107,0.026 0.161,0.039 10e-4,0 0.002,0 0.004,10e-4 0.159,0.039 0.318,0.077 0.477,0.115 -0.209,1.057 -0.623,2.057 -1.596,2.887 -1.52,1.296 -3.582,1.692 -5.513,2.205 -1.931,0.513 -3.975,1.306 -4.994,3.024 -0.374,0.631 -0.583,1.412 -0.338,2.103 0.024,0.069 0.052,0.136 0.085,0.2 0.002,0.004 0.004,0.008 0.007,0.012 0.095,0.188 0.22,0.353 0.37,0.497 0.003,0.004 0.006,0.007 0.01,0.011 0.007,0.007 0.015,0.014 0.023,0.021 0.03,0.028 0.06,0.054 0.092,0.081 0.005,0.003 0.009,0.008 0.014,0.011 0.026,0.022 0.053,0.043 0.082,0.063 0.003,0.003 0.007,0.006 0.011,0.008 0.038,0.028 0.078,0.055 0.119,0.081 0.014,0.009 0.028,0.019 0.044,0.028 0.003,0.003 0.007,0.005 0.011,0.007 0.057,0.034 0.116,0.067 0.177,0.098 0.009,0.004 0.019,0.009 0.028,0.014 0.058,0.028 0.116,0.054 0.176,0.079 0.011,0.004 0.022,0.009 0.034,0.013 0.06,0.024 0.122,0.046 0.184,0.067 0.009,0.003 0.017,0.005 0.026,0.008 0.106,0.034 0.215,0.062 0.325,0.086 0.016,0.004 0.032,0.008 0.049,0.011 0.004,10e-4 0.008,10e-4 0.012,0.002 0.318,0.062 0.646,0.083 0.961,0.064 0.018,-0.001 0.036,-0.002 0.054,-0.004 0.039,-0.002 0.079,-0.005 0.117,-0.008 0.006,-0.001 0.011,-0.002 0.017,-0.002 0.636,-0.06 1.259,-0.221 1.885,-0.358 0.086,-0.019 0.173,-0.037 0.259,-0.055 0.036,-0.007 0.071,-0.014 0.107,-0.021 0.087,-0.017 0.175,-0.033 0.263,-0.047 0,-10e-4 0.001,-10e-4 0.001,-10e-4 0.105,-0.017 0.209,-0.032 0.314,-0.046 0.029,-0.003 0.057,-0.007 0.086,-0.01 0.028,-0.003 0.056,-0.007 0.083,-0.009 0.064,-0.006 0.128,-0.012 0.192,-0.016 0.07,-0.005 0.14,-0.007 0.211,-0.009 0.011,-0.001 0.022,-0.001 0.033,-0.002 0.023,0 0.047,0 0.071,0 0.044,-10e-4 0.088,-10e-4 0.133,-10e-4 0.032,0 0.065,10e-4 0.097,10e-4 0.05,0.001 0.101,0.003 0.151,0.005 0.018,0 0.037,10e-4 0.055,10e-4 0.014,0.001 0.027,0.002 0.041,0.002 0.045,0.002 0.091,0.005 0.136,0.007 0.016,0.001 0.033,0.002 0.049,0.003 0.329,0.02 0.658,0.052 0.985,0.077 0.003,10e-4 0.007,10e-4 0.01,10e-4 0.059,0.005 0.118,0.009 0.176,0.013 0.033,0.002 0.066,0.004 0.099,0.006 0.046,0.003 0.092,0.006 0.139,0.008 0.042,0.002 0.085,0.004 0.128,0.006 0.039,0.002 0.079,0.003 0.118,0.004 0.05,0.001 0.099,0.002 0.148,0.002 0.034,0 0.068,0 0.102,0 0.056,0 0.112,-0.002 0.168,-0.003 0.018,-0.001 0.036,-0.001 0.054,-0.001 0.019,-10e-4 0.038,-0.002 0.056,-0.003 0.017,-10e-4 0.034,-0.002 0.051,-0.003 0.003,0 0.006,0 0.008,0 0.048,-0.003 0.096,-0.007 0.143,-0.011 0.013,-0.001 0.026,-0.003 0.038,-0.004 0.019,-0.002 0.038,-0.004 0.058,-0.006 0.002,0 0.005,0 0.008,-10e-4 0.031,-0.003 0.063,-0.008 0.094,-0.012 0.03,-0.003 0.059,-0.008 0.089,-0.012 0.025,-0.005 0.049,-0.009 0.074,-0.013 0.007,-0.001 0.014,-0.002 0.021,-0.004 0.02,-0.003 0.041,-0.007 0.06,-0.011 0.025,-0.004 0.05,-0.01 0.075,-0.015 0.013,-0.003 0.026,-0.005 0.039,-0.008 0.122,-0.028 0.243,-0.062 0.362,-0.1 0.003,-0.001 0.006,-0.002 0.009,-0.003 0.005,-0.002 0.011,-0.004 0.017,-0.006 0.486,-0.16 0.946,-0.397 1.409,-0.627 0.062,-0.03 0.124,-0.061 0.186,-0.091 0.061,-0.03 0.123,-0.06 0.185,-0.089 0.026,-0.012 0.052,-0.024 0.078,-0.036 0.048,-0.022 0.097,-0.045 0.145,-0.066 0.015,-0.006 0.03,-0.013 0.044,-0.019 0.397,-0.173 0.804,-0.311 1.217,-0.427 1.18,-0.329 2.418,-0.466 3.648,-0.639 0.752,-0.106 1.501,-0.225 2.232,-0.41 0.026,-0.006 0.052,-0.013 0.078,-0.02 0.056,-0.015 0.113,-0.029 0.168,-0.044 0.006,-0.002 0.011,-0.003 0.017,-0.005 0.145,-0.04 0.29,-0.083 0.434,-0.128 0.023,-0.007 0.047,-0.014 0.07,-0.021 0.008,-0.003 0.016,-0.006 0.025,-0.009 0.043,-0.013 0.086,-0.028 0.129,-0.042 0.032,-0.01 0.063,-0.02 0.094,-0.031 0.007,-0.003 0.014,-0.005 0.021,-0.008 0.123,-0.042 0.246,-0.085 0.368,-0.131 0.004,-10e-4 0.008,-0.003 0.013,-0.004 0.058,-0.022 0.118,-0.044 0.176,-0.067 0.003,-0.001 0.006,-0.003 0.009,-0.004 0.083,-0.032 0.166,-0.065 0.248,-0.099 0.002,0 0.003,-10e-4 0.004,-0.002 0.001,0.001 0.001,0 0.001,0 0.04,-0.016 0.08,-0.033 0.119,-0.049 0.008,-0.004 0.016,-0.007 0.024,-0.01 0.024,-0.01 0.047,-0.02 0.07,-0.03 0.031,-0.013 0.062,-0.026 0.093,-0.039 0.012,-0.006 0.024,-0.01 0.036,-0.016 0.145,-0.062 0.289,-0.128 0.433,-0.196 0.004,-0.002 0.008,-0.004 0.013,-0.006 0.147,-0.07 0.294,-0.142 0.44,-0.215 0.016,-0.008 0.032,-0.016 0.048,-0.024 0.003,-0.002 0.005,-0.003 0.008,-0.004 0.3,-0.153 0.595,-0.313 0.888,-0.48 10e-4,0 10e-4,0 10e-4,0 v 0 c 1.378,-0.785 2.687,-1.718 3.965,-2.655 0.675,-0.494 1.347,-0.994 2.007,-1.509 0.056,-0.044 0.113,-0.088 0.169,-0.131 0.027,-0.022 0.054,-0.043 0.081,-0.065 0.08,-0.063 0.159,-0.126 0.239,-0.19 0.062,-0.049 0.123,-0.099 0.185,-0.149 0.092,-0.074 0.183,-0.149 0.274,-0.224 0.028,-0.022 0.055,-0.044 0.083,-0.067 0.027,-0.023 0.054,-0.046 0.081,-0.069 0.082,-0.068 0.163,-0.136 0.244,-0.204 0.042,-0.036 0.084,-0.07 0.126,-0.106 0.066,-0.057 0.132,-0.114 0.197,-0.171 0.009,-0.007 0.017,-0.014 0.025,-0.021 0.718,0.283 1.455,0.529 2.188,0.765 0.22,0.071 0.44,0.141 0.66,0.211 0.009,0.004 0.018,0.007 0.028,0.009 0.021,0.796 0.101,1.585 0.269,2.347 0.229,1.042 0.62,2.03 1.248,2.903 0.406,0.564 1.052,1.111 1.722,0.925 0.03,-0.008 0.058,-0.017 0.086,-0.028 0.001,0.014 0.003,0.027 0.004,0.041 1.811,-0.956 4.011,-0.563 6.005,-0.101 2.534,0.588 5.055,1.248 7.512,2.102 0.351,0.122 0.714,0.251 1.086,0.226 0.439,-0.03 0.833,-0.268 1.187,-0.527 l 0.205,0.053 z" /></g></g></g></g></svg>