<?xml version="1.0" encoding="UTF-8" standalone="no"?>
<svg
   xmlns:dc="http://purl.org/dc/elements/1.1/"
   xmlns:cc="http://creativecommons.org/ns#"
   xmlns:rdf="http://www.w3.org/1999/02/22-rdf-syntax-ns#"
   xmlns:svg="http://www.w3.org/2000/svg"
   xmlns="http://www.w3.org/2000/svg"
   viewBox="0 0 1440 1440"
   height="1440"
   width="1440"
   xml:space="preserve"
   id="svg2"
   version="1.1"><metadata
     id="metadata8"><rdf:RDF><cc:Work
         rdf:about=""><dc:format>image/svg+xml</dc:format><dc:type
           rdf:resource="http://purl.org/dc/dcmitype/StillImage" /></cc:Work></rdf:RDF></metadata><defs
     id="defs6"><clipPath
       id="clipPath20"
       clipPathUnits="userSpaceOnUse"><path
         id="path18"
         d="M 0,1080 H 1080 V 0 H 0 Z" /></clipPath></defs><g
     transform="matrix(1.3333333,0,0,-1.3333333,0,1440)"
     id="g10"><path
       id="path12"
       style="fill:#ffffff;fill-opacity:1;fill-rule:nonzero;stroke:none"
       d="M 0,0 H 1080 V 1079 H 0 Z" /><g
       id="g14"><g
         clip-path="url(#clipPath20)"
         id="g16"><g
           transform="translate(669.14,547.76)"
           id="g22"><path
             id="path24"
             style="fill:#6348e5;fill-opacity:1;fill-rule:nonzero;stroke:none"
             d="m 0,0 c -0.48,0.02 -0.96,-0.14 -1.44,-0.3 -3.26,-1.14 -6.6,-2.02 -9.98,-2.8 -2.64,-0.62 -5.58,-1.14 -7.98,0.14 v -0.06 c -0.04,0.02 -0.08,0.02 -0.12,0.04 -0.88,0.24 -1.74,-0.48 -2.28,-1.24 -0.84,-1.16 -1.36,-2.46 -1.66,-3.86 -0.22,-1 -0.34,-2.06 -0.36,-3.1 -0.02,-0.02 -0.02,-0.02 -0.04,-0.02 -0.3,-0.1 -0.58,-0.18 -0.88,-0.28 -0.98,-0.32 -1.94,-0.64 -2.9,-1.02 -0.02,0 -0.02,0.02 -0.04,0.02 -0.08,0.08 -0.18,0.16 -0.26,0.24 -0.06,0.04 -0.12,0.08 -0.16,0.14 -0.12,0.08 -0.22,0.18 -0.34,0.26 -0.02,0.04 -0.06,0.06 -0.1,0.1 -0.04,0.02 -0.08,0.06 -0.1,0.08 -0.12,0.1 -0.26,0.2 -0.38,0.3 -0.08,0.08 -0.16,0.14 -0.24,0.2 -0.1,0.08 -0.22,0.18 -0.32,0.26 -0.04,0.02 -0.06,0.06 -0.1,0.08 -0.08,0.06 -0.16,0.12 -0.22,0.18 -0.88,0.68 -1.78,1.34 -2.68,2 -1.7,1.24 -3.44,2.48 -5.26,3.54 -0.4,0.22 -0.78,0.42 -1.18,0.62 l -0.02,0.02 c -0.02,0 -0.04,0.02 -0.06,0.02 -0.2,0.1 -0.4,0.2 -0.58,0.3 h -0.02 c -0.2,0.08 -0.38,0.18 -0.58,0.26 -0.02,0 -0.04,0.02 -0.04,0.02 -0.04,0.02 -0.08,0.04 -0.14,0.06 -0.02,0 -0.06,0.02 -0.08,0.04 h -0.04 c -0.04,0.02 -0.1,0.06 -0.16,0.08 -0.1,0.04 -0.22,0.08 -0.32,0.12 -0.02,0 -0.02,0 -0.02,0.02 -0.08,0.02 -0.16,0.06 -0.24,0.08 h -0.02 c -0.16,0.06 -0.32,0.12 -0.48,0.18 -0.02,0 -0.02,0 -0.04,0.02 -0.04,0 -0.08,0.02 -0.12,0.04 -0.06,0.02 -0.1,0.02 -0.16,0.04 -0.02,0.02 -0.02,0.02 -0.04,0.02 -0.04,0 -0.06,0.02 -0.1,0.02 -0.18,0.06 -0.38,0.12 -0.58,0.18 h -0.02 c -0.06,0.02 -0.14,0.04 -0.22,0.06 -0.02,0.02 -0.06,0.02 -0.1,0.02 -0.98,0.26 -1.96,0.42 -2.96,0.56 -1.64,0.22 -3.28,0.4 -4.86,0.84 -0.54,0.16 -1.08,0.34 -1.62,0.58 -0.02,0 -0.02,0 -0.04,0.02 -0.08,0.02 -0.14,0.06 -0.2,0.08 -0.04,0.02 -0.08,0.04 -0.1,0.06 -0.08,0.04 -0.18,0.06 -0.26,0.1 -0.08,0.04 -0.16,0.1 -0.24,0.14 -0.62,0.3 -1.22,0.62 -1.88,0.82 l -0.02,0.02 c -0.16,0.04 -0.32,0.1 -0.48,0.12 -0.02,0.02 -0.04,0.02 -0.06,0.02 -0.04,0 -0.06,0.02 -0.1,0.02 -0.02,0 -0.06,0 -0.08,0.02 h -0.02 c -0.04,0 -0.08,0.02 -0.1,0.02 -0.04,0 -0.08,0 -0.12,0.02 h -0.12 -0.02 c -0.02,0.02 -0.04,0.02 -0.08,0.02 h -0.04 c -0.06,0 -0.14,0.02 -0.2,0.02 h -0.22 c -0.08,0 -0.14,0.02 -0.22,0.02 h -0.14 c -0.06,0 -0.14,-0.02 -0.2,-0.02 h -0.32 c -0.06,0 -0.12,-0.02 -0.18,-0.02 h -0.14 c -0.08,0 -0.16,-0.02 -0.24,-0.02 -0.44,-0.04 -0.88,-0.08 -1.32,-0.1 h -0.06 C -59.9,0.44 -59.96,0.44 -60.02,0.44 h -0.46 c -0.06,-0.02 -0.12,0 -0.18,0 h -0.1 -0.04 -0.28 c -0.08,0.02 -0.16,0.02 -0.24,0.02 -0.04,0.02 -0.08,0.02 -0.12,0.02 -0.04,0 -0.08,0 -0.12,0.02 -0.14,0.02 -0.28,0.04 -0.42,0.06 -0.1,0.02 -0.22,0.04 -0.34,0.06 -0.04,0 -0.1,0.02 -0.14,0.02 -0.12,0.02 -0.24,0.06 -0.34,0.08 -0.84,0.18 -1.66,0.4 -2.52,0.48 h -0.02 -0.16 c -0.02,0 -0.04,0.02 -0.06,0.02 -0.42,0.02 -0.86,0 -1.28,-0.1 h -0.08 C -67.06,1.08 -67.22,1.04 -67.36,1 l -0.02,-0.02 c -0.1,-0.02 -0.18,-0.06 -0.26,-0.08 0,0 -0.02,-0.02 -0.04,-0.02 -0.08,-0.04 -0.16,-0.06 -0.24,-0.1 0,-0.02 -0.02,-0.02 -0.02,-0.02 -0.1,-0.04 -0.16,-0.08 -0.24,-0.14 h -0.02 c -0.02,-0.02 -0.04,-0.02 -0.06,-0.04 -0.06,-0.04 -0.1,-0.08 -0.16,-0.1 0,-0.02 0,-0.02 -0.02,-0.02 -0.02,-0.02 -0.06,-0.06 -0.1,-0.08 L -68.56,0.36 C -68.6,0.32 -68.64,0.3 -68.68,0.26 -68.7,0.24 -68.7,0.24 -68.72,0.22 c -0.2,-0.2 -0.36,-0.42 -0.5,-0.66 v -0.02 c -0.04,-0.08 -0.08,-0.18 -0.12,-0.26 -0.32,-0.92 -0.04,-1.96 0.46,-2.8 1.34,-2.28 4.06,-3.34 6.62,-4.02 2.58,-0.68 5.32,-1.22 7.34,-2.94 1.28,-1.1 1.84,-2.42 2.12,-3.84 -0.22,-0.04 -0.42,-0.1 -0.64,-0.14 -0.08,-0.02 -0.14,-0.04 -0.22,-0.06 -2.12,-0.52 -4.94,-1 -7.4,-1.9 -0.72,-0.26 -1.4,-0.56 -2.02,-0.9 -2.74,-0.5 -5.52,-0.66 -8.3,-0.68 h -0.84 c -5.86,0.02 -11.76,0.58 -17.62,0.08 -0.26,-0.02 -0.52,-0.06 -0.78,-0.1 -0.92,-0.16 -1.86,-0.46 -2.5,-1 -0.44,-0.36 -0.76,-0.82 -0.86,-1.42 v -0.02 c 0,-0.02 -0.02,-0.04 -0.02,-0.06 v -0.04 -0.04 -0.24 c 0.02,-1.02 0.8,-1.98 1.74,-2.46 1.08,-0.54 2.3,-0.6 3.5,-0.68 3.3,-0.22 6.6,-0.6 9.9,-1.06 3.02,-0.42 6.04,-0.92 9.06,-1.44 1.08,-0.2 2.26,-0.3 3.38,-0.54 0.06,-0.46 0.12,-0.9 0.18,-1.3 -0.18,-0.02 -0.34,-0.04 -0.5,-0.08 v 0.02 c -0.02,-0.02 -0.04,-0.02 -0.06,-0.02 -0.06,0 -0.14,-0.02 -0.2,-0.04 -0.14,-0.02 -0.3,-0.04 -0.44,-0.06 -0.04,0 -0.08,-0.02 -0.12,-0.02 -0.38,-0.06 -0.74,-0.12 -1.1,-0.18 -0.02,0 -0.02,0 -0.04,-0.02 h -0.02 c -0.1,-0.02 -0.2,-0.04 -0.3,-0.04 -0.02,-0.02 -0.04,-0.02 -0.06,-0.02 -0.1,-0.02 -0.22,-0.04 -0.32,-0.06 -0.96,-0.16 -1.9,-0.36 -2.86,-0.54 -0.6,-0.12 -1.2,-0.24 -1.8,-0.36 -0.36,-0.08 -0.7,-0.16 -1.06,-0.22 -0.8,-0.18 -1.6,-0.34 -2.42,-0.5 -2.06,-0.44 -4.12,-0.86 -6.18,-1.28 -1.82,-0.38 -3.66,-0.76 -5.48,-1.14 -0.82,-0.18 -1.66,-0.34 -2.5,-0.52 -2.24,-0.46 -5.88,-2.46 -3.6,-5.16 2.22,-2.62 6.08,-1.72 8.9,-1 7.18,1.84 14.58,2.86 22,3.04 0.12,-0.34 0.28,-0.68 0.42,-1 -0.12,-0.06 -0.26,-0.1 -0.4,-0.16 h -0.04 c -0.18,-0.08 -0.38,-0.16 -0.56,-0.22 -0.12,-0.04 -0.22,-0.1 -0.34,-0.14 -0.04,0 -0.06,-0.02 -0.08,-0.04 -0.08,-0.02 -0.14,-0.04 -0.2,-0.08 -0.06,-0.02 -0.14,-0.04 -0.2,-0.06 -0.02,-0.02 -0.04,-0.02 -0.08,-0.04 -0.22,-0.08 -0.44,-0.18 -0.68,-0.28 -0.06,-0.02 -0.12,-0.04 -0.18,-0.08 -0.18,-0.06 -0.34,-0.14 -0.52,-0.22 -0.12,-0.04 -0.26,-0.1 -0.38,-0.16 -0.04,-0.02 -0.06,-0.02 -0.1,-0.04 -0.16,-0.08 -0.32,-0.14 -0.5,-0.22 -0.12,-0.06 -0.26,-0.12 -0.4,-0.18 -0.04,-0.02 -0.08,-0.02 -0.12,-0.04 0,-0.02 -0.02,-0.02 -0.02,-0.02 h -0.02 c -0.06,-0.04 -0.12,-0.06 -0.18,-0.08 -0.12,-0.06 -0.22,-0.1 -0.34,-0.16 -0.18,-0.08 -0.36,-0.16 -0.54,-0.24 -0.08,-0.04 -0.18,-0.08 -0.26,-0.12 -0.66,-0.3 -1.32,-0.6 -1.98,-0.92 0,0 -0.02,0 -0.02,-0.02 -0.12,-0.04 -0.22,-0.1 -0.34,-0.16 -0.16,-0.06 -0.34,-0.14 -0.5,-0.22 -0.04,-0.02 -0.1,-0.04 -0.14,-0.08 -2.26,-1.06 -4.5,-2.12 -6.76,-3.16 -1.04,-0.5 -2.08,-0.98 -3.12,-1.48 -0.02,0 -0.06,-0.02 -0.08,-0.04 -0.02,0 -0.04,0 -0.04,-0.02 -0.02,0 -0.04,-0.02 -0.06,-0.02 -0.02,0 -0.04,0 -0.04,-0.02 -0.08,-0.02 -0.16,-0.06 -0.24,-0.08 -0.04,-0.02 -0.08,-0.04 -0.14,-0.06 -0.06,-0.02 -0.1,-0.04 -0.16,-0.06 -0.06,-0.04 -0.12,-0.06 -0.18,-0.08 -0.14,-0.04 -0.26,-0.1 -0.4,-0.14 -0.14,-0.06 -0.3,-0.12 -0.44,-0.16 -0.02,-0.02 -0.02,-0.02 -0.04,-0.02 -0.06,-0.02 -0.14,-0.06 -0.2,-0.08 -0.02,0 -0.06,-0.02 -0.08,-0.02 -0.06,-0.04 -0.14,-0.06 -0.2,-0.1 h -0.04 l -0.02,-0.02 c -0.08,-0.02 -0.16,-0.06 -0.24,-0.1 -0.02,0 -0.04,0 -0.04,-0.02 h -0.04 c -0.08,-0.04 -0.14,-0.08 -0.22,-0.1 -0.02,-0.02 -0.04,-0.02 -0.04,-0.02 -0.02,-0.02 -0.04,-0.02 -0.04,-0.02 -0.06,-0.04 -0.12,-0.06 -0.16,-0.08 -0.16,-0.08 -0.3,-0.16 -0.44,-0.24 h -0.02 c -0.18,-0.1 -0.34,-0.2 -0.5,-0.32 h -0.04 c 0,-0.02 0,-0.02 -0.02,-0.02 -0.04,-0.04 -0.08,-0.06 -0.1,-0.08 0,-0.02 -0.02,-0.02 -0.02,-0.02 -0.02,-0.02 -0.04,-0.02 -0.06,-0.04 -0.02,-0.02 -0.02,-0.02 -0.04,-0.04 0,0 -0.02,0 -0.02,-0.02 -0.02,-0.02 -0.04,-0.02 -0.06,-0.04 v -0.02 h -0.02 c -0.04,-0.04 -0.1,-0.08 -0.14,-0.12 0,-0.02 -0.02,-0.02 -0.02,-0.04 -0.02,0 -0.02,0 -0.02,-0.02 h -0.02 c 0,-0.02 -0.02,-0.02 -0.02,-0.04 -0.02,-0.02 -0.04,-0.04 -0.06,-0.06 0,0 0,-0.02 -0.02,-0.02 -0.02,-0.04 -0.04,-0.06 -0.06,-0.1 -0.02,0 -0.02,-0.02 -0.02,-0.02 -0.02,-0.02 -0.02,-0.02 -0.04,-0.04 0,0 0,-0.02 -0.02,-0.02 0,-0.02 -0.02,-0.04 -0.02,-0.04 0,-0.02 -0.02,-0.04 -0.02,-0.04 -0.02,-0.02 -0.04,-0.06 -0.04,-0.08 H -88 v -0.02 c 0,0 0,-0.02 -0.02,-0.02 v -0.02 c -0.02,-0.02 -0.02,-0.04 -0.02,-0.06 h -0.02 c 0,-0.04 -0.02,-0.06 -0.02,-0.08 v -0.02 c -0.02,-0.02 -0.02,-0.04 -0.02,-0.06 l -0.02,-0.02 c -0.02,-0.06 -0.02,-0.1 -0.04,-0.16 v -0.04 -0.04 c 0,-0.02 -0.02,-0.04 -0.02,-0.06 v -0.02 -0.04 -0.02 -0.02 -0.04 -0.02 -0.02 c 0,-0.04 0.02,-0.1 0.02,-0.16 v -0.02 -0.02 c 0,0 0.02,-0.02 0.02,-0.04 v -0.02 c 0,-0.02 0.02,-0.06 0.02,-0.08 v -0.02 c 0,-0.02 0.02,-0.02 0.02,-0.02 v -0.04 -0.02 c 0.02,-0.02 0.02,-0.04 0.02,-0.06 0.04,-0.1 0.1,-0.2 0.14,-0.32 1.36,-2.54 4.48,-1.88 6.7,-1.4 3.6,0.78 7.08,1.98 10.52,3.26 0.68,0.24 1.34,0.5 2.02,0.76 0.06,0.04 0.14,0.06 0.2,0.08 0.08,0.04 0.16,0.06 0.22,0.1 0.88,0.32 1.74,0.66 2.6,1 0.08,0.02 0.18,0.06 0.28,0.1 0.06,0.04 0.14,0.06 0.22,0.08 1.18,0.46 2.36,0.92 3.54,1.34 0.86,0.12 1.74,0.22 2.62,0.3 0.5,0.04 1.02,0.06 1.52,-0.06 1.22,-0.34 1.68,-1.3 1.74,-2.38 v -0.24 c -0.14,-0.14 -0.26,-0.26 -0.4,-0.38 -0.06,-0.06 -0.1,-0.12 -0.16,-0.16 -0.06,-0.06 -0.12,-0.12 -0.18,-0.18 -0.02,-0.02 -0.04,-0.02 -0.04,-0.04 -0.12,-0.12 -0.24,-0.24 -0.36,-0.34 -0.02,-0.04 -0.06,-0.06 -0.08,-0.1 -0.08,-0.06 -0.14,-0.14 -0.22,-0.2 -0.02,-0.04 -0.04,-0.06 -0.08,-0.08 -0.12,-0.12 -0.24,-0.26 -0.36,-0.38 -0.02,-0.02 -0.04,-0.02 -0.04,-0.04 -0.28,-0.28 -0.56,-0.58 -0.84,-0.86 -0.08,-0.1 -0.18,-0.18 -0.26,-0.28 -0.04,-0.04 -0.08,-0.08 -0.12,-0.12 -0.1,-0.12 -0.2,-0.22 -0.32,-0.34 -0.08,-0.08 -0.16,-0.18 -0.24,-0.26 -0.02,-0.02 -0.04,-0.04 -0.04,-0.06 -0.14,-0.14 -0.26,-0.28 -0.4,-0.42 -0.04,-0.02 -0.06,-0.06 -0.1,-0.1 -0.04,-0.04 -0.08,-0.08 -0.1,-0.12 -0.02,-0.02 -0.04,-0.04 -0.06,-0.06 -0.12,-0.12 -0.22,-0.26 -0.34,-0.38 -0.04,-0.04 -0.08,-0.08 -0.12,-0.14 -0.04,-0.02 -0.06,-0.06 -0.1,-0.1 -0.62,-0.68 -1.22,-1.36 -1.82,-2.06 -0.02,-0.04 -0.06,-0.08 -0.1,-0.12 -1.06,-1.22 -2.12,-2.48 -3.16,-3.74 -0.32,-0.38 -0.64,-0.76 -0.96,-1.14 -0.06,-0.1 -0.14,-0.18 -0.22,-0.28 -0.04,-0.04 -0.06,-0.06 -0.08,-0.1 -0.4,-0.48 -0.82,-1 -0.8,-1.62 0,-0.02 0,-0.04 0.02,-0.06 v -0.04 c 0,-0.02 0,-0.06 0.02,-0.1 V -61.98 -62 c 0,-0.02 0.02,-0.04 0.02,-0.06 0,0 0,-0.02 0.02,-0.04 v -0.02 c 0,-0.02 0.02,-0.04 0.02,-0.04 v -0.02 c 0.22,-0.5 0.74,-0.86 1.3,-1 0.14,-0.02 0.28,-0.04 0.42,-0.04 0.86,0 1.64,0.44 2.38,0.88 2.56,1.54 4.94,3.32 7.26,5.18 4.2,3.36 8.2,6.98 12.7,9.92 1.28,0.82 3.3,1.66 5.02,2.76 0.8,0.32 1.6,0.66 2.4,1.02 2.42,1.04 4.84,2.1 7.26,3.14 2.84,1.24 5.82,2.58 7.76,5 0.1,0.12 0.18,0.24 0.26,0.36 0.9,0.44 1.92,0.9 3,1.34 0.14,-0.22 0.3,-0.44 0.46,-0.64 l -21.9,-21.9 0.06,-0.08 c 0.04,-0.02 0.06,-0.06 0.06,-0.06 1.1,-1.08 2.34,-2.08 3.64,-2.84 2.22,-1.38 4.74,-2.32 7.38,-2.66 4.74,-0.62 9.4,-2.38 13.44,-5.34 2.28,-1.6 4.36,-3.58 6.2,-5.9 0.52,-0.64 1,-1.3 1.46,-2 0.46,-0.7 0.9,-1.46 1.3,-2.2 5.66,-10.38 4.72,-23.66 -2.88,-33.12 -10.06,-12.56 -27.58,-14.7 -40.16,-6.42 -1.62,1.1 -3.16,2.34 -4.62,3.78 -1.22,1.22 -2.3,2.48 -3.24,3.84 -0.96,1.34 -1.82,2.72 -2.5,4.22 -1.48,2.92 -2.4,6 -2.84,9.18 -0.32,2.12 -0.92,4.18 -1.88,6.06 -0.24,0.48 -0.48,0.96 -0.8,1.38 -0.78,1.34 -1.74,2.54 -2.86,3.66 0,0 -0.04,0.04 -0.06,0.06 l -0.06,0.06 -48.42,-48.42 -48.42,48.42 0.06,0.06 0.4,0.4 c 3,2.82 6.68,4.62 10.76,5.2 6.26,0.88 12.32,3.72 17.14,8.56 12.56,12.54 11.72,33.42 -2.54,44.82 -10.82,8.7 -26.54,8.7 -37.4,0.02 -6.44,-5.1 -10.12,-12.18 -11.12,-19.54 -0.58,-4.02 -2.42,-7.74 -5.2,-10.7 l -0.4,-0.38 c 0,0 -0.04,-0.04 -0.06,-0.06 l -41.14,41.12 0.12,0.24 c 0.46,-0.34 0.98,-0.66 1.56,-0.7 0.5,-0.04 0.98,0.14 1.46,0.3 3.26,1.14 6.6,2.02 9.98,2.8 2.64,0.6 5.56,1.14 7.98,-0.14 v 0.06 c 0.04,-0.02 0.08,-0.04 0.12,-0.04 0.88,-0.24 1.74,0.48 2.28,1.22 0.84,1.16 1.36,2.48 1.66,3.86 0.22,1.02 0.34,2.06 0.36,3.12 0.02,0 0.02,0.02 0.04,0.02 0.3,0.08 0.58,0.18 0.88,0.28 0.96,0.32 1.94,0.64 2.9,1.02 l 0.04,-0.04 c 0.08,-0.08 0.18,-0.14 0.26,-0.22 0.06,-0.06 0.1,-0.1 0.16,-0.14 0.12,-0.1 0.22,-0.18 0.32,-0.28 0.04,-0.02 0.08,-0.06 0.12,-0.08 0.04,-0.04 0.08,-0.06 0.1,-0.1 0.12,-0.1 0.24,-0.2 0.38,-0.3 0.08,-0.06 0.16,-0.12 0.24,-0.2 0.1,-0.08 0.2,-0.16 0.32,-0.24 0.04,-0.04 0.06,-0.06 0.1,-0.08 0.08,-0.06 0.16,-0.12 0.22,-0.18 0.88,-0.68 1.78,-1.36 2.68,-2 1.7,-1.26 3.44,-2.5 5.26,-3.54 0.4,-0.22 0.78,-0.44 1.18,-0.64 h 0.02 c 0.02,-0.02 0.04,-0.02 0.06,-0.04 0.2,-0.1 0.38,-0.18 0.58,-0.28 h 0.02 c 0.2,-0.1 0.38,-0.18 0.58,-0.26 0.02,-0.02 0.04,-0.02 0.04,-0.02 0.04,-0.02 0.08,-0.04 0.12,-0.06 0.04,-0.02 0.08,-0.02 0.1,-0.04 0.02,0 0.02,0 0.04,-0.02 0.04,-0.02 0.1,-0.04 0.16,-0.06 0.1,-0.04 0.22,-0.1 0.32,-0.14 h 0.02 c 0.08,-0.02 0.16,-0.06 0.24,-0.08 0,0 0,-0.02 0.02,-0.02 0.16,-0.06 0.32,-0.12 0.48,-0.16 l 0.02,-0.02 c 0.04,-0.02 0.1,-0.02 0.14,-0.04 0.06,-0.02 0.1,-0.04 0.16,-0.06 h 0.04 c 0.02,-0.02 0.06,-0.02 0.1,-0.04 0.18,-0.06 0.38,-0.12 0.56,-0.16 0.02,0 0.02,0 0.04,-0.02 0.06,-0.02 0.14,-0.04 0.22,-0.04 0.02,-0.02 0.06,-0.02 0.1,-0.04 0.96,-0.24 1.96,-0.4 2.96,-0.54 1.64,-0.24 3.28,-0.42 4.86,-0.86 0.54,-0.14 1.08,-0.32 1.6,-0.56 0.02,0 0.04,-0.02 0.06,-0.02 0.08,-0.04 0.14,-0.06 0.2,-0.1 0.04,0 0.08,-0.02 0.1,-0.04 0.08,-0.04 0.16,-0.08 0.26,-0.12 0.08,-0.04 0.16,-0.08 0.24,-0.12 0.62,-0.3 1.22,-0.62 1.88,-0.84 h 0.02 c 0.16,-0.06 0.32,-0.1 0.48,-0.14 h 0.06 c 0.04,-0.02 0.06,-0.02 0.1,-0.02 0.02,-0.02 0.06,-0.02 0.08,-0.02 h 0.02 c 0.04,-0.02 0.08,-0.02 0.1,-0.02 0.04,0 0.08,-0.02 0.12,-0.02 0.04,0 0.08,-0.02 0.12,-0.02 h 0.02 0.08 0.04 c 0.06,-0.02 0.14,-0.02 0.2,-0.02 h 0.08 c 0.02,0 0.04,-0.02 0.06,-0.02 h 0.8 c 0.04,0.02 0.1,0.02 0.16,0.02 h 0.18 c 0.06,0.02 0.1,0.02 0.14,0.02 0.08,0 0.16,0 0.24,0.02 0.44,0.02 0.88,0.08 1.32,0.1 h 0.06 c 0.06,0 0.12,0 0.18,0.02 h 0.78 c 0.08,0 0.18,0 0.28,-0.02 0.08,0 0.16,0 0.24,-0.02 h 0.12 c 0.04,-0.02 0.08,-0.02 0.12,-0.02 0.14,-0.02 0.28,-0.04 0.42,-0.06 0.1,-0.02 0.22,-0.04 0.34,-0.06 0.04,-0.02 0.1,-0.02 0.14,-0.04 0.12,-0.02 0.24,-0.04 0.34,-0.06 0.84,-0.18 1.66,-0.4 2.52,-0.48 h 0.02 c 0.04,0 0.1,-0.02 0.16,-0.02 h 0.06 c 0.42,-0.02 0.86,0 1.28,0.08 h 0.02 c 0.02,0.02 0.04,0.02 0.06,0.02 0.14,0.04 0.3,0.08 0.44,0.12 h 0.02 c 0.08,0.04 0.18,0.06 0.26,0.1 0,0 0.02,0 0.04,0.02 0.08,0.02 0.16,0.06 0.24,0.1 l 0.02,0.02 c 0.08,0.04 0.16,0.08 0.24,0.12 0,0.02 0.02,0.02 0.02,0.02 0.02,0 0.04,0.02 0.06,0.04 0.06,0.02 0.1,0.06 0.16,0.1 v 0.02 c 0.04,0.02 0.08,0.04 0.12,0.08 0,0 0.02,0 0.02,0.02 0.04,0.02 0.08,0.06 0.12,0.1 l 0.02,0.02 0.02,0.02 c 0.2,0.2 0.36,0.42 0.5,0.66 v 0.02 c 0.04,0.08 0.08,0.18 0.12,0.26 0.32,0.92 0.04,1.96 -0.46,2.8 -1.34,2.28 -4.06,3.34 -6.62,4.02 -2.58,0.68 -5.32,1.2 -7.34,2.92 -1.28,1.1 -1.84,2.44 -2.12,3.84 0.22,0.06 0.42,0.1 0.64,0.16 0.08,0.02 0.14,0.04 0.22,0.04 2.12,0.54 4.94,1.02 7.4,1.92 0.72,0.26 1.4,0.56 2.02,0.9 2.74,0.48 5.52,0.66 8.3,0.68 h 0.84 c 5.86,-0.02 11.76,-0.6 17.62,-0.08 0.26,0.02 0.52,0.06 0.78,0.1 0.92,0.16 1.84,0.46 2.5,1 0.44,0.36 0.76,0.82 0.86,1.4 v 0.02 c 0,0.02 0,0.04 0.02,0.08 v 0.3 c -0.02,1.04 -0.8,2 -1.74,2.48 -1.08,0.54 -2.3,0.6 -3.5,0.68 -3.32,0.22 -6.6,0.6 -9.9,1.06 -3.02,0.42 -6.04,0.92 -9.06,1.44 -1.08,0.2 -2.26,0.28 -3.38,0.52 -0.06,0.46 -0.12,0.9 -0.18,1.3 0.16,0.04 0.34,0.06 0.5,0.08 0.02,0 0.04,0 0.06,0.02 0.06,0 0.14,0.02 0.2,0.02 0.14,0.02 0.28,0.04 0.44,0.08 0.04,0 0.08,0 0.12,0.02 0.38,0.06 0.74,0.12 1.1,0.18 h 0.04 0.02 l 0.3,0.06 c 0.02,0 0.04,0 0.06,0.02 0.1,0 0.22,0.02 0.32,0.04 0.96,0.18 1.9,0.36 2.86,0.56 0.6,0.12 1.2,0.24 1.8,0.36 0.36,0.08 0.7,0.14 1.04,0.22 0.82,0.16 1.62,0.34 2.44,0.5 2.06,0.42 4.12,0.86 6.18,1.28 1.82,0.38 3.64,0.76 5.48,1.14 0.82,0.16 1.66,0.34 2.5,0.5 2.24,0.48 5.88,2.48 3.6,5.18 -2.22,2.6 -6.08,1.7 -8.9,1 -7.18,-1.84 -14.58,-2.86 -22,-3.04 -0.14,0.34 -0.28,0.66 -0.42,1 0.12,0.04 0.26,0.1 0.4,0.14 0,0.02 0.02,0.02 0.02,0.02 h 0.02 c 0.18,0.08 0.36,0.14 0.56,0.22 0.12,0.04 0.22,0.08 0.34,0.14 0.02,0 0.06,0.02 0.08,0.02 0.06,0.04 0.14,0.06 0.2,0.08 0.06,0.02 0.14,0.06 0.2,0.08 0.02,0 0.04,0.02 0.08,0.04 0.22,0.08 0.44,0.18 0.66,0.26 h 0.02 c 0.06,0.04 0.12,0.06 0.18,0.08 0.18,0.08 0.34,0.16 0.52,0.22 0.12,0.06 0.26,0.12 0.38,0.18 0.04,0 0.06,0.02 0.1,0.04 0.16,0.06 0.32,0.14 0.5,0.2 0.12,0.06 0.26,0.12 0.4,0.18 0.04,0.02 0.08,0.04 0.12,0.06 0,0 0.02,0 0.02,0.02 h 0.02 c 0.06,0.02 0.12,0.06 0.18,0.08 0.12,0.04 0.22,0.1 0.34,0.16 0.18,0.08 0.36,0.16 0.54,0.24 0.08,0.04 0.16,0.08 0.26,0.12 0.66,0.3 1.32,0.6 1.98,0.92 h 0.02 c 0.12,0.06 0.22,0.12 0.34,0.16 0.16,0.08 0.34,0.16 0.5,0.24 0.04,0.02 0.1,0.04 0.14,0.06 2.26,1.06 4.5,2.12 6.76,3.18 1.04,0.5 2.08,0.98 3.12,1.46 0.02,0.02 0.06,0.04 0.08,0.04 0.02,0.02 0.04,0.02 0.04,0.02 0.02,0.02 0.04,0.02 0.06,0.04 h 0.04 c 0.08,0.04 0.16,0.06 0.22,0.1 0.06,0.02 0.1,0.04 0.16,0.06 0.04,0.02 0.1,0.04 0.16,0.06 0.06,0.02 0.12,0.04 0.18,0.06 0.14,0.06 0.26,0.1 0.4,0.16 0.14,0.04 0.3,0.1 0.44,0.16 0.02,0 0.02,0.02 0.04,0.02 0.06,0.02 0.14,0.04 0.2,0.08 0.02,0 0.06,0.02 0.08,0.02 0.06,0.02 0.14,0.06 0.2,0.08 0.02,0 0.02,0.02 0.04,0.02 h 0.02 c 0.08,0.04 0.16,0.08 0.24,0.12 h 0.04 c 0.02,0.02 0.02,0.02 0.04,0.02 0.08,0.04 0.14,0.06 0.22,0.1 0.02,0 0.04,0.02 0.04,0.02 0.02,0 0.04,0.02 0.04,0.02 0.06,0.02 0.12,0.06 0.16,0.08 0.16,0.08 0.3,0.14 0.44,0.22 0.02,0 0.02,0.02 0.02,0.02 0.18,0.1 0.34,0.2 0.5,0.3 0.02,0 0.02,0.02 0.04,0.02 0,0 0,0.02 0.02,0.02 0.04,0.02 0.06,0.06 0.1,0.08 h 0.02 c 0.02,0.02 0.04,0.04 0.06,0.06 0.02,0 0.02,0.02 0.04,0.02 0,0.02 0.02,0.02 0.02,0.04 0.02,0 0.04,0.02 0.06,0.04 0.02,0 0.02,0.02 0.02,0.02 0.04,0.04 0.08,0.08 0.14,0.12 0,0.02 0.02,0.02 0.02,0.04 h 0.02 c 0,0.02 0,0.02 0.02,0.02 0,0.02 0.02,0.02 0.02,0.04 0.02,0 0.04,0.02 0.06,0.04 0,0.02 0,0.02 0.02,0.04 0.02,0.02 0.04,0.06 0.06,0.08 0.02,0.02 0.02,0.02 0.02,0.04 0.02,0 0.02,0.02 0.04,0.04 0,0 0,0.02 0.02,0.02 0,0.02 0,0.02 0.02,0.04 0,0.02 0.02,0.02 0.02,0.04 0.02,0.02 0.04,0.04 0.04,0.06 0,0.02 0,0.02 0.02,0.02 v 0.04 c 0.02,0 0.02,0.02 0.02,0.02 0.02,0.02 0.02,0.04 0.02,0.06 h 0.02 c 0,0.02 0.02,0.04 0.02,0.08 v 0.02 c 0.02,0.02 0.02,0.04 0.02,0.06 0.02,0 0.02,0.02 0.02,0.02 0,0.06 0.02,0.1 0.04,0.14 v 0.04 0.06 c 0,0.02 0,0.04 0.02,0.06 v 0.06 0.04 0.04 0.02 c 0,0.06 -0.02,0.12 -0.02,0.18 v 0.02 c -0.02,0.02 -0.02,0.04 -0.02,0.06 v 0.02 c 0,0.02 -0.02,0.04 -0.02,0.06 v 0.04 l -0.02,0.02 v 0.04 c -0.02,0.04 -0.02,0.06 -0.04,0.08 -0.02,0.1 -0.08,0.2 -0.12,0.3 -1.36,2.56 -4.48,1.9 -6.72,1.42 -3.58,-0.78 -7.06,-1.98 -10.5,-3.26 -0.68,-0.26 -1.36,-0.52 -2.02,-0.78 -0.08,-0.02 -0.14,-0.04 -0.2,-0.08 -0.08,-0.02 -0.16,-0.04 -0.22,-0.08 -0.88,-0.32 -1.74,-0.66 -2.6,-1 -0.08,-0.04 -0.18,-0.08 -0.28,-0.1 -0.08,-0.04 -0.14,-0.06 -0.22,-0.1 -1.18,-0.44 -2.36,-0.9 -3.54,-1.34 -0.86,-0.1 -1.74,-0.2 -2.62,-0.28 -0.5,-0.04 -1.02,-0.08 -1.52,0.06 -1.22,0.34 -1.68,1.3 -1.74,2.36 v 0.26 c 0.14,0.12 0.26,0.26 0.4,0.38 0.04,0.06 0.1,0.1 0.16,0.16 0.06,0.06 0.12,0.12 0.18,0.16 0.02,0.02 0.02,0.04 0.04,0.06 0.12,0.12 0.24,0.22 0.36,0.34 0.02,0.04 0.06,0.06 0.08,0.1 0.08,0.06 0.14,0.14 0.22,0.2 0.02,0.02 0.04,0.06 0.08,0.08 0.12,0.12 0.24,0.24 0.36,0.38 0.02,0 0.04,0.02 0.04,0.04 0.28,0.28 0.56,0.56 0.84,0.86 0.08,0.08 0.18,0.18 0.26,0.28 l 0.12,0.12 c 0.1,0.1 0.2,0.22 0.3,0.32 0.1,0.1 0.18,0.18 0.26,0.28 l 0.04,0.04 c 0.14,0.14 0.26,0.28 0.4,0.42 0.02,0.04 0.06,0.08 0.1,0.12 0.04,0.04 0.08,0.08 0.1,0.12 0.02,0.02 0.04,0.04 0.06,0.04 0.12,0.14 0.22,0.26 0.34,0.4 0.04,0.04 0.08,0.08 0.12,0.12 0.04,0.04 0.06,0.08 0.1,0.12 0.62,0.68 1.22,1.36 1.82,2.04 0.02,0.04 0.06,0.08 0.1,0.12 1.06,1.24 2.12,2.5 3.16,3.76 0.32,0.38 0.64,0.76 0.94,1.14 h 0.02 c 0.06,0.08 0.14,0.18 0.22,0.28 0.04,0.02 0.06,0.06 0.08,0.1 0.4,0.46 0.8,1 0.8,1.62 0,0.02 -0.02,0.04 -0.02,0.06 v 0.02 c 0,0.04 0,0.08 -0.02,0.1 v 0.02 0.04 0.02 c -0.02,0.02 -0.02,0.04 -0.02,0.06 l -0.02,0.02 v 0.04 c 0,0 -0.02,0.02 -0.02,0.04 -0.22,0.52 -0.74,0.88 -1.3,1 -0.14,0.04 -0.28,0.06 -0.42,0.06 -0.86,0 -1.64,-0.44 -2.38,-0.88 -2.56,-1.54 -4.94,-3.34 -7.26,-5.2 -4.2,-3.34 -8.2,-6.96 -12.7,-9.9 -1.28,-0.84 -3.3,-1.66 -5.02,-2.76 -0.8,-0.34 -1.6,-0.68 -2.4,-1.02 -2.42,-1.04 -4.84,-2.1 -7.26,-3.16 -2.86,-1.24 -5.82,-2.56 -7.76,-5 -0.1,-0.1 -0.18,-0.22 -0.26,-0.34 -0.9,-0.46 -1.92,-0.9 -3,-1.36 -0.16,0.24 -0.32,0.44 -0.46,0.66 l 21.9,21.9 c -0.04,0.04 -0.04,0.04 -0.06,0.06 -1.48,1.48 -3.18,2.76 -5.06,3.66 -0.9,0.48 -1.86,0.9 -2.9,1.22 -0.48,0.18 -1.02,0.3 -1.56,0.42 -0.52,0.14 -1.04,0.24 -1.58,0.3 -3.14,0.42 -6.24,1.32 -9.16,2.74 -3.9,1.92 -7.48,4.7 -10.38,8.38 -1.08,1.34 -2,2.72 -2.78,4.24 -0.84,1.46 -1.52,3.02 -2.06,4.6 l -0.02,0.02 c -0.82,2.4 -1.3,4.82 -1.48,7.3 -0.1,0.82 -0.12,1.68 -0.1,2.5 -0.06,6.66 2.14,13.34 6.48,18.76 9.42,11.78 25.3,14.42 37.62,7.86 2.6,-1.34 5.04,-3.12 7.22,-5.3 2.42,-2.42 4.36,-5.14 5.74,-8.04 1.46,-2.9 2.36,-5.98 2.78,-9.14 0.32,-2.16 0.94,-4.2 1.94,-6.1 0.94,-1.84 2.18,-3.56 3.66,-5.06 0.04,-0.02 0.04,-0.02 0.06,-0.06 l 48.42,48.42 48.42,-48.42 C -67.84,69 -67.84,69 -67.86,68.96 c -3.02,-3.02 -6.9,-5.02 -11.16,-5.58 -6.3,-0.86 -12.34,-3.7 -17.18,-8.54 -12.56,-12.54 -11.7,-33.42 2.56,-44.84 10.8,-8.68 26.6,-8.68 37.42,-0.04 6.4,5.14 10.12,12.2 11.12,19.54 0.58,4.26 2.58,8.08 5.6,11.1 0.04,0.04 0.04,0.04 0.06,0.06 L 1.86,-0.64 1.58,-0.7 C 1.12,-0.36 0.6,-0.04 0,0 m -116.14,152.24 c -88.36,0 -160,-71.62 -160,-160 0,-88.36 71.64,-160 160,-160 88.36,0 160,71.64 160,160 0,88.38 -71.64,160 -160,160" /></g></g></g></g></svg>